<?xml version="1.0" encoding="UTF-8"?>
<!--Generator: Apple Native CoreSVG 123-->
<!DOCTYPE svg
PUBLIC "-//W3C//DTD SVG 1.1//EN"
       "http://www.w3.org/Graphics/SVG/1.1/DTD/svg11.dtd">
<svg version="1.1" xmlns="http://www.w3.org/2000/svg" xmlns:xlink="http://www.w3.org/1999/xlink" width="3300" height="2200">
 <!--glyph: "uni100592.medium", point size: 100.000000, font version: "Version 15.0d7e11", template writer version: "5"-->
 <g id="Notes">
  <rect height="2200" id="artboard" style="fill:white;opacity:1" width="3300" x="0" y="0"/>
  <line id="" style="fill:none;stroke:black;opacity:1;stroke-width:0.5;" x1="263" x2="3036" y1="292" y2="292"/>
  <text style="stroke:none;fill:black;font-family:-apple-system,&quot;SF Pro Display&quot;,&quot;SF Pro Text&quot;,Helvetica,sans-serif;font-weight:bold;" transform="matrix(1 0 0 1 263 322)">Weight/Scale Variations</text>
  <text style="stroke:none;fill:black;font-family:-apple-system,&quot;SF Pro Display&quot;,&quot;SF Pro Text&quot;,Helvetica,sans-serif;text-anchor:middle;" transform="matrix(1 0 0 1 559.711 322)">Ultralight</text>
  <text style="stroke:none;fill:black;font-family:-apple-system,&quot;SF Pro Display&quot;,&quot;SF Pro Text&quot;,Helvetica,sans-serif;text-anchor:middle;" transform="matrix(1 0 0 1 856.422 322)">Thin</text>
  <text style="stroke:none;fill:black;font-family:-apple-system,&quot;SF Pro Display&quot;,&quot;SF Pro Text&quot;,Helvetica,sans-serif;text-anchor:middle;" transform="matrix(1 0 0 1 1153.13 322)">Light</text>
  <text style="stroke:none;fill:black;font-family:-apple-system,&quot;SF Pro Display&quot;,&quot;SF Pro Text&quot;,Helvetica,sans-serif;text-anchor:middle;" transform="matrix(1 0 0 1 1449.84 322)">Regular</text>
  <text style="stroke:none;fill:black;font-family:-apple-system,&quot;SF Pro Display&quot;,&quot;SF Pro Text&quot;,Helvetica,sans-serif;text-anchor:middle;" transform="matrix(1 0 0 1 1746.56 322)">Medium</text>
  <text style="stroke:none;fill:black;font-family:-apple-system,&quot;SF Pro Display&quot;,&quot;SF Pro Text&quot;,Helvetica,sans-serif;text-anchor:middle;" transform="matrix(1 0 0 1 2043.27 322)">Semibold</text>
  <text style="stroke:none;fill:black;font-family:-apple-system,&quot;SF Pro Display&quot;,&quot;SF Pro Text&quot;,Helvetica,sans-serif;text-anchor:middle;" transform="matrix(1 0 0 1 2339.98 322)">Bold</text>
  <text style="stroke:none;fill:black;font-family:-apple-system,&quot;SF Pro Display&quot;,&quot;SF Pro Text&quot;,Helvetica,sans-serif;text-anchor:middle;" transform="matrix(1 0 0 1 2636.69 322)">Heavy</text>
  <text style="stroke:none;fill:black;font-family:-apple-system,&quot;SF Pro Display&quot;,&quot;SF Pro Text&quot;,Helvetica,sans-serif;text-anchor:middle;" transform="matrix(1 0 0 1 2933.4 322)">Black</text>
  <line id="" style="fill:none;stroke:black;opacity:1;stroke-width:0.5;" x1="263" x2="3036" y1="1903" y2="1903"/>
  <g id="" transform="matrix(1 0 0 1 263 1933)">
   <path d="M 9.24805 0.830078 C 13.5547 0.830078 17.1387 -2.74414 17.1387 -7.05078 C 17.1387 -11.3574 13.5449 -14.9316 9.23828 -14.9316 C 4.94141 -14.9316 1.36719 -11.3574 1.36719 -7.05078 C 1.36719 -2.74414 4.95117 0.830078 9.24805 0.830078 Z M 9.24805 -0.654297 C 5.70312 -0.654297 2.87109 -3.49609 2.87109 -7.05078 C 2.87109 -10.6055 5.69336 -13.4473 9.23828 -13.4473 C 12.793 -13.4473 15.6348 -10.6055 15.6445 -7.05078 C 15.6543 -3.49609 12.8027 -0.654297 9.24805 -0.654297 Z M 9.22852 -3.42773 C 9.69727 -3.42773 9.9707 -3.74023 9.9707 -4.25781 L 9.9707 -6.31836 L 12.1973 -6.31836 C 12.6953 -6.31836 13.0371 -6.57227 13.0371 -7.04102 C 13.0371 -7.51953 12.7148 -7.7832 12.1973 -7.7832 L 9.9707 -7.7832 L 9.9707 -10.0098 C 9.9707 -10.5273 9.69727 -10.8496 9.22852 -10.8496 C 8.75977 -10.8496 8.50586 -10.5078 8.50586 -10.0098 L 8.50586 -7.7832 L 6.29883 -7.7832 C 5.78125 -7.7832 5.44922 -7.51953 5.44922 -7.04102 C 5.44922 -6.57227 5.80078 -6.31836 6.29883 -6.31836 L 8.50586 -6.31836 L 8.50586 -4.25781 C 8.50586 -3.75977 8.75977 -3.42773 9.22852 -3.42773 Z"/>
  </g>
  <g id="" transform="matrix(1 0 0 1 281.506 1933)">
   <path d="M 11.709 2.91016 C 17.1582 2.91016 21.6699 -1.60156 21.6699 -7.05078 C 21.6699 -12.4902 17.1484 -17.0117 11.6992 -17.0117 C 6.25977 -17.0117 1.74805 -12.4902 1.74805 -7.05078 C 1.74805 -1.60156 6.26953 2.91016 11.709 2.91016 Z M 11.709 1.25 C 7.09961 1.25 3.41797 -2.44141 3.41797 -7.05078 C 3.41797 -11.6504 7.08984 -15.3516 11.6992 -15.3516 C 16.3086 -15.3516 20 -11.6504 20.0098 -7.05078 C 20.0195 -2.44141 16.3184 1.25 11.709 1.25 Z M 11.6895 -2.41211 C 12.207 -2.41211 12.5195 -2.77344 12.5195 -3.33984 L 12.5195 -6.23047 L 15.5762 -6.23047 C 16.123 -6.23047 16.5039 -6.51367 16.5039 -7.03125 C 16.5039 -7.55859 16.1426 -7.86133 15.5762 -7.86133 L 12.5195 -7.86133 L 12.5195 -10.9277 C 12.5195 -11.5039 12.207 -11.8555 11.6895 -11.8555 C 11.1719 -11.8555 10.8789 -11.4844 10.8789 -10.9277 L 10.8789 -7.86133 L 7.83203 -7.86133 C 7.26562 -7.86133 6.89453 -7.55859 6.89453 -7.03125 C 6.89453 -6.51367 7.28516 -6.23047 7.83203 -6.23047 L 10.8789 -6.23047 L 10.8789 -3.33984 C 10.8789 -2.79297 11.1719 -2.41211 11.6895 -2.41211 Z"/>
  </g>
  <g id="" transform="matrix(1 0 0 1 304.924 1933)">
   <path d="M 14.9707 5.67383 C 21.9336 5.67383 27.6953 -0.078125 27.6953 -7.04102 C 27.6953 -14.0039 21.9238 -19.7559 14.9609 -19.7559 C 8.00781 -19.7559 2.25586 -14.0039 2.25586 -7.04102 C 2.25586 -0.078125 8.01758 5.67383 14.9707 5.67383 Z M 14.9707 3.85742 C 8.93555 3.85742 4.08203 -1.00586 4.08203 -7.04102 C 4.08203 -13.0762 8.92578 -17.9395 14.9609 -17.9395 C 21.0059 -17.9395 25.8594 -13.0762 25.8691 -7.04102 C 25.8789 -1.00586 21.0156 3.85742 14.9707 3.85742 Z M 14.9512 -1.06445 C 15.5176 -1.06445 15.8691 -1.45508 15.8691 -2.06055 L 15.8691 -6.13281 L 20.1074 -6.13281 C 20.6934 -6.13281 21.1133 -6.46484 21.1133 -7.02148 C 21.1133 -7.59766 20.7227 -7.93945 20.1074 -7.93945 L 15.8691 -7.93945 L 15.8691 -12.1875 C 15.8691 -12.8027 15.5176 -13.1934 14.9512 -13.1934 C 14.3848 -13.1934 14.0625 -12.7832 14.0625 -12.1875 L 14.0625 -7.93945 L 9.83398 -7.93945 C 9.21875 -7.93945 8.80859 -7.59766 8.80859 -7.02148 C 8.80859 -6.46484 9.23828 -6.13281 9.83398 -6.13281 L 14.0625 -6.13281 L 14.0625 -2.06055 C 14.0625 -1.47461 14.3848 -1.06445 14.9512 -1.06445 Z"/>
  </g>
  <text style="stroke:none;fill:black;font-family:-apple-system,&quot;SF Pro Display&quot;,&quot;SF Pro Text&quot;,Helvetica,sans-serif;font-weight:bold;" transform="matrix(1 0 0 1 263 1953)">Design Variations</text>
  <text style="stroke:none;fill:black;font-family:-apple-system,&quot;SF Pro Display&quot;,&quot;SF Pro Text&quot;,Helvetica,sans-serif;" transform="matrix(1 0 0 1 263 1971)">Symbols are supported in up to nine weights and three scales.</text>
  <text style="stroke:none;fill:black;font-family:-apple-system,&quot;SF Pro Display&quot;,&quot;SF Pro Text&quot;,Helvetica,sans-serif;" transform="matrix(1 0 0 1 263 1989)">For optimal layout with text and other symbols, vertically align</text>
  <text style="stroke:none;fill:black;font-family:-apple-system,&quot;SF Pro Display&quot;,&quot;SF Pro Text&quot;,Helvetica,sans-serif;" transform="matrix(1 0 0 1 263 2007)">symbols with the adjacent text.</text>
  <rect height="14" id="" style="fill:#00AEEF;stroke:none;opacity:0.4;" width="3" x="776" y="1919"/>
  <g id="" transform="matrix(1 0 0 1 779 1933)">
   <path d="M 10.5273 0 L 12.373 0 L 7.17773 -14.0918 L 5.43945 -14.0918 L 0.244141 0 L 2.08984 0 L 3.50586 -4.0332 L 9.11133 -4.0332 Z M 6.2793 -11.9531 L 6.33789 -11.9531 L 8.59375 -5.52734 L 4.02344 -5.52734 Z"/>
  </g>
  <rect height="14" id="" style="fill:#00AEEF;stroke:none;opacity:0.4;" width="3" x="791.617" y="1919"/>
  <text style="stroke:none;fill:black;font-family:-apple-system,&quot;SF Pro Display&quot;,&quot;SF Pro Text&quot;,Helvetica,sans-serif;font-weight:bold;" transform="matrix(1 0 0 1 776 1953)">Margins</text>
  <text style="stroke:none;fill:black;font-family:-apple-system,&quot;SF Pro Display&quot;,&quot;SF Pro Text&quot;,Helvetica,sans-serif;" transform="matrix(1 0 0 1 776 1971)">Leading and trailing margins on the left and right side of each symbol</text>
  <text style="stroke:none;fill:black;font-family:-apple-system,&quot;SF Pro Display&quot;,&quot;SF Pro Text&quot;,Helvetica,sans-serif;" transform="matrix(1 0 0 1 776 1989)">can be adjusted by modifying the width of the blue rectangles.</text>
  <text style="stroke:none;fill:black;font-family:-apple-system,&quot;SF Pro Display&quot;,&quot;SF Pro Text&quot;,Helvetica,sans-serif;" transform="matrix(1 0 0 1 776 2007)">Modifications are automatically applied proportionally to all</text>
  <text style="stroke:none;fill:black;font-family:-apple-system,&quot;SF Pro Display&quot;,&quot;SF Pro Text&quot;,Helvetica,sans-serif;" transform="matrix(1 0 0 1 776 2025)">scales and weights.</text>
  <g id="" transform="matrix(1 0 0 1 1289 1933)">
   <path d="M 2.83203 3.11523 L 4.375 4.6582 C 5.22461 5.48828 6.19141 5.41992 7.06055 4.46289 L 17.2754 -6.66016 C 17.7051 -6.36719 18.0957 -6.37695 18.5645 -6.47461 L 19.6094 -6.68945 L 20.3027 -5.99609 L 20.2539 -5.47852 C 20.1855 -4.95117 20.3516 -4.53125 20.8496 -4.0332 L 21.6602 -3.22266 C 22.168 -2.71484 22.8223 -2.68555 23.3008 -3.16406 L 26.5527 -6.41602 C 27.0312 -6.89453 27.0117 -7.54883 26.5039 -8.05664 L 25.6836 -8.87695 C 25.1855 -9.375 24.7754 -9.55078 24.2383 -9.47266 L 23.7109 -9.41406 L 23.0566 -10.0781 L 23.3398 -11.2207 C 23.4863 -11.7871 23.3398 -12.2559 22.7148 -12.8613 L 20.3027 -15.2539 C 16.7578 -18.7793 12.2266 -18.6719 9.11133 -15.5371 C 8.69141 -15.1074 8.64258 -14.5215 8.91602 -14.0918 C 9.15039 -13.7207 9.62891 -13.4961 10.2734 -13.6621 C 11.7871 -14.043 13.3008 -13.9258 14.7852 -12.9199 L 14.1602 -11.3379 C 13.9258 -10.752 13.9453 -10.2734 14.1797 -9.83398 L 3.01758 0.439453 C 2.08008 1.30859 1.97266 2.25586 2.83203 3.11523 Z M 10.6738 -15.1465 C 13.3398 -17.1387 16.6504 -16.8262 19.0527 -14.4141 L 21.6797 -11.8066 C 21.9141 -11.5723 21.9434 -11.3867 21.8848 -11.0938 L 21.5039 -9.53125 L 23.0762 -7.95898 L 24.043 -8.04688 C 24.3262 -8.07617 24.4141 -8.05664 24.6387 -7.83203 L 25.2637 -7.20703 L 22.5098 -4.46289 L 21.8848 -5.07812 C 21.6602 -5.30273 21.6406 -5.40039 21.6699 -5.68359 L 21.7578 -6.64062 L 20.1953 -8.20312 L 18.5742 -7.89062 C 18.291 -7.83203 18.1445 -7.83203 17.9102 -8.07617 L 15.7324 -10.2539 C 15.5078 -10.4883 15.4785 -10.625 15.6055 -10.9473 L 16.5527 -13.2227 C 14.9512 -14.7559 12.8418 -15.6055 10.8008 -14.9512 C 10.7129 -14.9219 10.6445 -14.9414 10.6152 -14.9805 C 10.5859 -15.0293 10.5859 -15.0781 10.6738 -15.1465 Z M 4.10156 2.41211 C 3.61328 1.91406 3.78906 1.61133 4.12109 1.30859 L 15.0781 -8.80859 L 16.3086 -7.57812 L 6.15234 3.34961 C 5.84961 3.68164 5.46875 3.7793 5.06836 3.37891 Z"/>
  </g>
  <text style="stroke:none;fill:black;font-family:-apple-system,&quot;SF Pro Display&quot;,&quot;SF Pro Text&quot;,Helvetica,sans-serif;font-weight:bold;" transform="matrix(1 0 0 1 1289 1953)">Exporting</text>
  <text style="stroke:none;fill:black;font-family:-apple-system,&quot;SF Pro Display&quot;,&quot;SF Pro Text&quot;,Helvetica,sans-serif;" transform="matrix(1 0 0 1 1289 1971)">Symbols should be outlined when exporting to ensure the</text>
  <text style="stroke:none;fill:black;font-family:-apple-system,&quot;SF Pro Display&quot;,&quot;SF Pro Text&quot;,Helvetica,sans-serif;" transform="matrix(1 0 0 1 1289 1989)">design is preserved when submitting to Xcode.</text>
  <text id="template-version" style="stroke:none;fill:black;font-family:-apple-system,&quot;SF Pro Display&quot;,&quot;SF Pro Text&quot;,Helvetica,sans-serif;text-anchor:end;" transform="matrix(1 0 0 1 3036 1933)">Template v.1.0</text>
  <text style="stroke:none;fill:black;font-family:-apple-system,&quot;SF Pro Display&quot;,&quot;SF Pro Text&quot;,Helvetica,sans-serif;text-anchor:end;" transform="matrix(1 0 0 1 3036 1951)">Generated from dot.radiowaves.right</text>
  <text style="stroke:none;fill:black;font-family:-apple-system,&quot;SF Pro Display&quot;,&quot;SF Pro Text&quot;,Helvetica,sans-serif;text-anchor:end;" transform="matrix(1 0 0 1 3036 1969)">Typeset at 100 points</text>
  <text style="stroke:none;fill:black;font-family:-apple-system,&quot;SF Pro Display&quot;,&quot;SF Pro Text&quot;,Helvetica,sans-serif;" transform="matrix(1 0 0 1 263 726)">Small</text>
  <text style="stroke:none;fill:black;font-family:-apple-system,&quot;SF Pro Display&quot;,&quot;SF Pro Text&quot;,Helvetica,sans-serif;" transform="matrix(1 0 0 1 263 1156)">Medium</text>
  <text style="stroke:none;fill:black;font-family:-apple-system,&quot;SF Pro Display&quot;,&quot;SF Pro Text&quot;,Helvetica,sans-serif;" transform="matrix(1 0 0 1 263 1586)">Large</text>
 </g>
 <g id="Guides">
  <g id="H-reference" style="fill:#27AAE1;stroke:none;" transform="matrix(1 0 0 1 339 696)">
   <path d="M 54.9316 0 L 57.666 0 L 30.5664 -70.459 L 28.0762 -70.459 L 0.976562 0 L 3.66211 0 L 12.9395 -24.4629 L 45.7031 -24.4629 Z M 29.1992 -67.0898 L 29.4434 -67.0898 L 44.8242 -26.709 L 13.8184 -26.709 Z"/>
  </g>
  <line id="Baseline-S" style="fill:none;stroke:#27AAE1;opacity:1;stroke-width:0.577;" x1="263" x2="3036" y1="696" y2="696"/>
  <line id="Capline-S" style="fill:none;stroke:#27AAE1;opacity:1;stroke-width:0.577;" x1="263" x2="3036" y1="625.541" y2="625.541"/>
  <g id="H-reference" style="fill:#27AAE1;stroke:none;" transform="matrix(1 0 0 1 339 1126)">
   <path d="M 54.9316 0 L 57.666 0 L 30.5664 -70.459 L 28.0762 -70.459 L 0.976562 0 L 3.66211 0 L 12.9395 -24.4629 L 45.7031 -24.4629 Z M 29.1992 -67.0898 L 29.4434 -67.0898 L 44.8242 -26.709 L 13.8184 -26.709 Z"/>
  </g>
  <line id="Baseline-M" style="fill:none;stroke:#27AAE1;opacity:1;stroke-width:0.577;" x1="263" x2="3036" y1="1126" y2="1126"/>
  <line id="Capline-M" style="fill:none;stroke:#27AAE1;opacity:1;stroke-width:0.577;" x1="263" x2="3036" y1="1055.54" y2="1055.54"/>
  <g id="H-reference" style="fill:#27AAE1;stroke:none;" transform="matrix(1 0 0 1 339 1556)">
   <path d="M 54.9316 0 L 57.666 0 L 30.5664 -70.459 L 28.0762 -70.459 L 0.976562 0 L 3.66211 0 L 12.9395 -24.4629 L 45.7031 -24.4629 Z M 29.1992 -67.0898 L 29.4434 -67.0898 L 44.8242 -26.709 L 13.8184 -26.709 Z"/>
  </g>
  <line id="Baseline-L" style="fill:none;stroke:#27AAE1;opacity:1;stroke-width:0.577;" x1="263" x2="3036" y1="1556" y2="1556"/>
  <line id="Capline-L" style="fill:none;stroke:#27AAE1;opacity:1;stroke-width:0.577;" x1="263" x2="3036" y1="1485.54" y2="1485.54"/>
  <rect height="119.336" id="left-margin" style="fill:#00AEEF;stroke:none;opacity:0.4;" width="8.74023" x="1403.07" y="1030.79"/>
  <rect height="119.336" id="right-margin" style="fill:#00AEEF;stroke:none;opacity:0.4;" width="8.74023" x="1487.88" y="1030.79"/>
 </g>
 <g id="Symbols">
  <g id="Black-L" transform="matrix(1 0 0 1 2867.02 1556)">
   <path d="M 84.6191 30.7617 C 87.6953 34.2285 93.3105 34.5215 96.8262 30.7129 C 112.891 13.3301 121.484 -9.81445 121.484 -35.0098 C 121.484 -60.1074 112.891 -83.3496 96.8262 -100.684 C 93.3105 -104.492 87.6953 -104.248 84.6191 -100.732 C 81.6406 -97.4121 81.9336 -92.8711 85.1562 -89.4531 C 98.4375 -75.2441 105.518 -56.0547 105.518 -35.0098 C 105.518 -13.9648 98.1445 5.07812 85.1562 19.4824 C 81.9824 22.9492 81.6406 27.3926 84.6191 30.7617 Z M 63.9648 10.6934 C 67.041 14.502 72.4609 14.9902 77.002 10.3516 C 87.6953 -0.878906 93.0664 -17.4316 93.0664 -35.0098 C 93.0664 -52.5391 87.1582 -69.7754 77.002 -80.3223 C 72.4609 -85.0098 67.041 -84.4727 63.9648 -80.6641 C 61.084 -77.1973 62.0605 -72.9492 65.1855 -69.5312 C 72.9492 -60.8887 77.1484 -48.4863 77.1484 -35.0098 C 77.1484 -21.5332 72.9492 -9.08203 65.1855 -0.439453 C 62.0605 2.97852 61.084 7.17773 63.9648 10.6934 Z M 43.6523 -8.88672 C 46.582 -5.07812 52.4414 -4.83398 56.4941 -9.17969 C 61.9141 -15.1855 64.8438 -24.8535 64.8438 -35.0098 C 64.8438 -45.2148 61.9141 -54.8828 56.4941 -60.8887 C 52.4414 -65.2344 46.582 -64.9414 43.6523 -61.1816 C 41.0645 -57.7637 41.8945 -53.7109 44.3848 -50.1953 C 46.875 -46.6797 48.877 -40.332 48.877 -35.0098 C 48.877 -29.7363 46.875 -23.3398 44.3848 -19.873 C 41.8945 -16.3086 41.0645 -12.2559 43.6523 -8.88672 Z M 22.2168 -24.5117 C 28.0762 -24.5117 32.959 -29.3945 32.959 -35.2539 C 32.959 -41.2598 28.1738 -46.0938 22.2168 -46.0938 C 16.2598 -46.0938 11.2793 -41.0645 11.2793 -35.1074 C 11.2793 -29.3945 16.3086 -24.5117 22.2168 -24.5117 Z"/>
  </g>
  <g id="Heavy-L" transform="matrix(1 0 0 1 2572.02 1556)">
   <path d="M 82.7637 29.1504 C 85.5469 32.2266 90.4785 32.5195 93.7012 29.1016 C 109.473 12.207 118.066 -10.4004 118.066 -35.0098 C 118.066 -59.5703 109.521 -82.2266 93.7012 -99.0723 C 90.4785 -102.49 85.5469 -102.246 82.7637 -99.1699 C 80.127 -96.1914 80.4199 -92.0898 83.3496 -89.0137 C 96.6797 -74.9512 103.809 -55.9082 103.809 -35.0098 C 103.809 -14.1113 96.3867 4.73633 83.3496 18.9941 C 80.4688 22.1191 80.127 26.1719 82.7637 29.1504 Z M 62.7441 9.86328 C 65.5273 13.2812 70.3613 13.6719 74.3164 9.57031 C 84.9609 -1.61133 90.4785 -17.7734 90.4785 -35.0098 C 90.4785 -52.1973 84.5703 -68.8965 74.3164 -79.5898 C 70.3613 -83.6914 65.5273 -83.3008 62.7441 -79.8828 C 60.1562 -76.7578 61.0352 -72.9492 63.8672 -69.8242 C 71.875 -61.0352 76.2207 -48.5352 76.2207 -35.0098 C 76.2207 -21.4355 71.875 -9.0332 63.8672 -0.195312 C 61.0352 2.92969 60.1562 6.73828 62.7441 9.86328 Z M 43.1641 -9.27734 C 45.8008 -5.9082 51.0254 -5.66406 54.541 -9.57031 C 60.0098 -15.7227 62.9883 -25.0977 62.9883 -35.0098 C 62.9883 -44.9707 60.0098 -54.3457 54.541 -60.498 C 51.0254 -64.3555 45.8008 -64.1602 43.1641 -60.791 C 40.7715 -57.7637 41.5527 -54.1016 43.8965 -50.8301 C 46.7285 -47.0215 48.7305 -40.7227 48.7305 -35.0098 C 48.7305 -29.3457 46.7285 -22.998 43.8965 -19.1895 C 41.5527 -15.9668 40.7715 -12.3047 43.1641 -9.27734 Z M 21.7285 -24.9512 C 27.3438 -24.9512 32.0312 -29.6387 32.0312 -35.2539 C 32.0312 -40.9668 27.4414 -45.6055 21.7285 -45.6055 C 16.0156 -45.6055 11.2793 -40.7715 11.2793 -35.1074 C 11.2793 -29.6875 16.1133 -24.9512 21.7285 -24.9512 Z"/>
  </g>
  <g id="Bold-L" transform="matrix(1 0 0 1 2277.21 1556)">
   <path d="M 80.7617 27.3438 C 83.1055 30.0293 87.3535 30.2734 90.1367 27.2461 C 105.615 10.8887 114.258 -11.084 114.258 -35.0098 C 114.258 -58.9355 105.713 -81.0059 90.1367 -97.3145 C 87.3535 -100.293 83.1055 -100.049 80.7617 -97.3633 C 78.418 -94.7754 78.7598 -91.2109 81.3477 -88.4766 C 94.6777 -74.6094 101.904 -55.7129 101.904 -35.0098 C 101.904 -14.3066 94.4336 4.39453 81.3477 18.457 C 78.8086 21.1914 78.418 24.7559 80.7617 27.3438 Z M 61.4258 8.98438 C 63.8184 11.9141 68.0176 12.1582 71.3379 8.69141 C 81.8848 -2.44141 87.5488 -18.1641 87.5488 -35.0098 C 87.5488 -51.8555 81.6895 -67.9688 71.3379 -78.7109 C 68.0176 -82.1777 63.8184 -81.9336 61.4258 -79.0039 C 59.1309 -76.3184 59.9121 -72.9492 62.4023 -70.1172 C 70.7031 -61.1328 75.1953 -48.6328 75.1953 -35.0098 C 75.1953 -21.3867 70.6543 -8.93555 62.4023 0.0976562 C 59.9121 2.92969 59.1309 6.29883 61.4258 8.98438 Z M 42.5781 -9.66797 C 44.873 -6.78711 49.4141 -6.64062 52.3926 -10.0098 C 57.9102 -16.3086 60.9375 -25.3906 60.9375 -35.0098 C 60.9375 -44.6777 57.9102 -53.7598 52.3926 -60.0586 C 49.4141 -63.4277 44.873 -63.2812 42.5781 -60.3516 C 40.4297 -57.7148 41.1621 -54.4922 43.2617 -51.5625 C 46.5332 -47.4121 48.584 -41.1133 48.584 -35.0098 C 48.584 -28.9551 46.582 -22.6074 43.2617 -18.457 C 41.1621 -15.5762 40.4297 -12.3535 42.5781 -9.66797 Z M 21.1426 -25.4883 C 26.5137 -25.4883 30.957 -29.9316 30.957 -35.2539 C 30.957 -40.6738 26.5625 -45.0684 21.1426 -45.0684 C 15.8203 -45.0684 11.2793 -40.4785 11.2793 -35.1074 C 11.2793 -29.9805 15.8691 -25.4883 21.1426 -25.4883 Z"/>
  </g>
  <g id="Semibold-L" transform="matrix(1 0 0 1 1981.79 1556)">
   <path d="M 79.3457 26.0742 C 81.4453 28.4668 85.2051 28.7109 87.7441 26.0254 C 102.979 10.0098 111.67 -11.5234 111.67 -35.0098 C 111.67 -58.4961 103.125 -80.1758 87.7441 -96.0449 C 85.2051 -98.7305 81.4453 -98.4863 79.3457 -96.1426 C 77.2461 -93.8477 77.5879 -90.5762 79.9316 -88.0859 C 93.3105 -74.3652 100.586 -55.6152 100.586 -35.0098 C 100.586 -14.4043 93.1152 4.10156 79.9316 18.0664 C 77.6367 20.5566 77.2461 23.7793 79.3457 26.0742 Z M 60.498 8.39844 C 62.6465 10.9375 66.4062 11.1328 69.2871 8.10547 C 79.7852 -3.02734 85.5469 -18.4082 85.5469 -35.0098 C 85.5469 -51.6113 79.6875 -67.2852 69.2871 -78.125 C 66.4062 -81.1523 62.6465 -81.0059 60.498 -78.418 C 58.3984 -75.9766 59.082 -72.9004 61.377 -70.3613 C 69.873 -61.2305 74.5117 -48.7305 74.5117 -35.0098 C 74.5117 -21.3379 69.8242 -8.88672 61.377 0.292969 C 59.082 2.88086 58.3984 5.95703 60.498 8.39844 Z M 42.1387 -9.96094 C 44.2871 -7.37305 48.3398 -7.27539 50.9277 -10.3027 C 56.4453 -16.6992 59.5215 -25.5859 59.5215 -35.0098 C 59.5215 -44.4824 56.4453 -53.3691 50.9277 -59.7656 C 48.3398 -62.793 44.2871 -62.6465 42.1387 -60.1074 C 40.1855 -57.7148 40.918 -54.7852 42.8711 -52.0996 C 46.4355 -47.7051 48.4863 -41.4062 48.4863 -35.0098 C 48.4863 -28.6621 46.4844 -22.3145 42.8711 -17.9688 C 40.918 -15.2832 40.1855 -12.3535 42.1387 -9.96094 Z M 20.8008 -25.8301 C 25.9277 -25.8301 30.2246 -30.127 30.2246 -35.2539 C 30.2246 -40.4785 26.0254 -44.6777 20.8008 -44.6777 C 15.625 -44.6777 11.2793 -40.2832 11.2793 -35.1074 C 11.2793 -30.1758 15.7227 -25.8301 20.8008 -25.8301 Z"/>
  </g>
  <g id="Medium-L" transform="matrix(1 0 0 1 1686.08 1556)">
   <path d="M 78.2715 25.1465 C 80.1758 27.2949 83.5449 27.5391 85.8887 25.0488 C 100.977 9.32617 109.668 -11.8652 109.668 -35.0098 C 109.668 -58.2031 101.172 -79.541 85.8887 -95.1172 C 83.5449 -97.5586 80.1758 -97.3145 78.2715 -95.2148 C 76.3672 -93.1152 76.709 -90.0879 78.9062 -87.8418 C 92.2852 -74.1699 99.6094 -55.5176 99.6094 -35.0098 C 99.6094 -14.502 92.0898 3.95508 78.9062 17.7734 C 76.7578 20.0684 76.3672 23.0469 78.2715 25.1465 Z M 59.7656 7.91016 C 61.7676 10.2539 65.1855 10.3516 67.7246 7.66602 C 78.1738 -3.4668 84.0332 -18.6523 84.0332 -35.0098 C 84.0332 -51.416 78.1738 -66.7969 67.7246 -77.6855 C 65.1855 -80.3711 61.7188 -80.2734 59.7656 -77.9785 C 57.8613 -75.7324 58.4961 -72.9004 60.6445 -70.5078 C 69.2871 -61.3281 73.9746 -48.7793 73.9746 -35.0098 C 73.9746 -21.2891 69.1895 -8.83789 60.6445 0.488281 C 58.4961 2.88086 57.8613 5.71289 59.7656 7.91016 Z M 41.8457 -10.2051 C 43.7988 -7.86133 47.5098 -7.76367 49.8047 -10.498 C 55.3223 -16.9922 58.4473 -25.7324 58.4473 -35.0098 C 58.4473 -44.3359 55.3223 -53.0762 49.8047 -59.5215 C 47.5098 -62.3047 43.7988 -62.207 41.8457 -59.8633 C 39.9902 -57.666 40.7227 -54.9805 42.5781 -52.4414 C 46.3379 -47.9004 48.4375 -41.6016 48.4375 -35.0098 C 48.4375 -28.4668 46.3867 -22.1191 42.5781 -17.5781 C 40.7227 -15.0879 39.9902 -12.3535 41.8457 -10.2051 Z M 20.5078 -26.123 C 25.4883 -26.123 29.6387 -30.2734 29.6387 -35.2539 C 29.6387 -40.332 25.5859 -44.4336 20.5078 -44.4336 C 15.5273 -44.4336 11.2793 -40.1367 11.2793 -35.1074 C 11.2793 -30.3223 15.5762 -26.123 20.5078 -26.123 Z"/>
  </g>
  <g id="Regular-L" transform="matrix(1 0 0 1 1390.66 1556)">
   <path d="M 76.8555 23.9258 C 78.5156 25.7812 81.4453 25.9766 83.4961 23.8281 C 98.3398 8.39844 107.08 -12.3047 107.08 -35.0098 C 107.08 -57.7637 98.584 -78.7109 83.4961 -93.8965 C 81.4453 -96.0449 78.5156 -95.8008 76.8555 -93.9941 C 75.2441 -92.1387 75.5859 -89.502 77.4902 -87.4512 C 90.9668 -73.9746 98.3398 -55.4199 98.3398 -35.0098 C 98.3398 -14.6484 90.7227 3.66211 77.4902 17.3828 C 75.5859 19.4336 75.2441 22.1191 76.8555 23.9258 Z M 58.8867 7.32422 C 60.5957 9.32617 63.623 9.32617 65.6738 7.08008 C 76.0742 -4.05273 82.0312 -18.8965 82.0312 -35.0098 C 82.0312 -51.1719 76.2207 -66.1133 65.6738 -77.0996 C 63.623 -79.3457 60.5957 -79.3457 58.8867 -77.3438 C 57.1777 -75.4395 57.7148 -72.9004 59.6191 -70.752 C 68.457 -61.4258 73.291 -48.8281 73.291 -35.0098 C 73.291 -21.2402 68.3594 -8.78906 59.6191 0.683594 C 57.7148 2.83203 57.1777 5.37109 58.8867 7.32422 Z M 41.4551 -10.4492 C 43.2129 -8.44727 46.4355 -8.39844 48.3398 -10.791 C 53.8574 -17.3828 57.0801 -25.8789 57.0801 -35.0098 C 57.0801 -44.1406 53.8574 -52.6855 48.3398 -59.2285 C 46.4355 -61.6699 43.2129 -61.6211 41.4551 -59.5703 C 39.7461 -57.666 40.4785 -55.2734 42.1387 -52.9785 C 46.1914 -48.1445 48.3398 -41.8945 48.3398 -35.0098 C 48.3398 -28.1738 46.2891 -21.8262 42.1387 -17.0898 C 40.4297 -14.8438 39.7461 -12.4023 41.4551 -10.4492 Z M 20.1172 -26.4648 C 24.9023 -26.4648 28.9062 -30.4688 28.9062 -35.2539 C 28.9062 -40.1367 25 -44.043 20.1172 -44.043 C 15.332 -44.043 11.2793 -39.9414 11.2793 -35.1074 C 11.2793 -30.5176 15.4297 -26.4648 20.1172 -26.4648 Z"/>
  </g>
  <g id="Light-L" transform="matrix(1 0 0 1 1095.59 1556)">
   <path d="M 75.2441 22.7051 C 76.4648 24.0723 78.7109 24.2676 80.2734 22.6562 C 94.9707 7.56836 103.809 -12.6465 103.809 -35.0098 C 103.809 -57.4219 95.3613 -77.9785 80.2734 -92.6758 C 78.7109 -94.2871 76.4648 -94.1406 75.2441 -92.7734 C 73.9746 -91.3574 74.2676 -89.3066 75.7324 -87.793 C 89.5508 -74.3652 97.1191 -55.6641 97.1191 -35.0098 C 97.1191 -14.4043 89.209 3.95508 75.7324 17.7246 C 74.2676 19.2383 73.9746 21.2891 75.2441 22.7051 Z M 57.5195 6.25 C 58.8379 7.8125 61.1328 7.8125 62.6953 6.10352 C 73.0469 -4.63867 79.1504 -19.1406 79.1504 -35.0098 C 79.1504 -50.8789 73.2422 -65.5762 62.6953 -76.1719 C 61.1328 -77.832 58.7891 -77.832 57.5195 -76.3184 C 56.25 -74.9023 56.6895 -72.9004 58.1055 -71.2891 C 67.3828 -61.9629 72.4609 -49.1211 72.4609 -35.0098 C 72.4609 -20.8984 67.1875 -8.30078 58.1055 1.26953 C 56.6895 2.83203 56.25 4.83398 57.5195 6.25 Z M 40.3809 -11.2793 C 41.748 -9.7168 44.1406 -9.7168 45.6055 -11.4746 C 51.2695 -17.7734 54.4922 -26.0742 54.4922 -35.0098 C 54.4922 -43.9941 51.2695 -52.3438 45.6055 -58.5938 C 44.1406 -60.3516 41.748 -60.3027 40.3809 -58.7891 C 39.1113 -57.3242 39.6484 -55.4688 40.9668 -53.7598 C 45.459 -48.877 47.8027 -42.2363 47.8027 -35.0098 C 47.8027 -27.7832 45.6055 -21.0449 40.9668 -16.2598 C 39.5996 -14.5996 39.1113 -12.6953 40.3809 -11.2793 Z M 19.5801 -27.002 C 24.0234 -27.002 27.7832 -30.8105 27.7832 -35.2539 C 27.7832 -39.7949 24.1211 -43.457 19.5801 -43.457 C 15.0879 -43.457 11.2793 -39.6484 11.2793 -35.1074 C 11.2793 -30.8105 15.1855 -27.002 19.5801 -27.002 Z"/>
  </g>
  <g id="Thin-L" transform="matrix(1 0 0 1 801.027 1556)">
   <path d="M 73.0469 21.0449 C 73.7793 21.875 75.0977 21.9727 76.0254 21.0449 C 90.5273 6.44531 99.5117 -13.1348 99.5117 -35.0098 C 99.5117 -56.9336 91.0645 -77.002 76.0254 -91.1133 C 75.0977 -91.9922 73.7793 -91.8945 73.0469 -91.1133 C 72.3633 -90.332 72.5586 -89.0625 73.3398 -88.2324 C 87.6953 -74.8535 95.5566 -55.957 95.5566 -35.0098 C 95.5566 -14.1113 87.1582 4.29688 73.3398 18.1641 C 72.5586 18.9941 72.3633 20.2637 73.0469 21.0449 Z M 55.7617 4.88281 C 56.543 5.81055 57.9102 5.81055 58.7891 4.88281 C 69.043 -5.46875 75.293 -19.4824 75.293 -35.0098 C 75.293 -50.5371 69.3359 -64.8926 58.7891 -74.9023 C 57.9102 -75.8301 56.4453 -75.8301 55.7617 -74.9512 C 55.0293 -74.1699 55.3223 -72.9004 56.1035 -72.0703 C 65.9668 -62.7441 71.3379 -49.5605 71.3379 -35.0098 C 71.3379 -20.5078 65.625 -7.61719 56.1035 2.00195 C 55.3223 2.83203 55.0293 4.10156 55.7617 4.88281 Z M 39.0137 -12.3047 C 39.7949 -11.4258 41.1621 -11.4258 42.041 -12.3535 C 47.8027 -18.2617 51.123 -26.2695 51.123 -35.0098 C 51.123 -43.75 47.8027 -51.8555 42.041 -57.7148 C 41.1621 -58.6426 39.7949 -58.6426 39.0137 -57.7637 C 38.2812 -56.9336 38.5742 -55.7617 39.3555 -54.834 C 44.4336 -49.8047 47.168 -42.7734 47.168 -35.0098 C 47.168 -27.2949 44.6777 -20.0195 39.3555 -15.1855 C 38.5254 -14.3555 38.2812 -13.1348 39.0137 -12.3047 Z M 18.7988 -27.7344 C 22.8516 -27.7344 26.3184 -31.2012 26.3184 -35.2539 C 26.3184 -39.4043 22.9492 -42.7246 18.7988 -42.7246 C 14.7461 -42.7246 11.2793 -39.2578 11.2793 -35.1074 C 11.2793 -31.2012 14.8438 -27.7344 18.7988 -27.7344 Z"/>
  </g>
  <g id="Ultralight-L" transform="matrix(1 0 0 1 505.414 1556)">
   <path d="M 71.9238 20.2148 C 72.3633 20.7031 73.291 20.8008 73.8281 20.2148 C 88.2812 5.85938 97.3145 -13.3301 97.3145 -35.0098 C 97.3145 -56.6895 88.8672 -76.5137 73.8281 -90.2832 C 73.291 -90.8203 72.3633 -90.7715 71.9238 -90.2832 C 71.5332 -89.7949 71.6309 -88.916 72.1191 -88.4766 C 86.7188 -75.1465 94.7754 -56.1035 94.7754 -35.0098 C 94.7754 -13.9648 86.1328 4.44336 72.1191 18.4082 C 71.6309 18.8965 71.5332 19.7266 71.9238 20.2148 Z M 54.834 4.19922 C 55.3223 4.78516 56.25 4.78516 56.7871 4.24805 C 66.9922 -5.85938 73.291 -19.6777 73.291 -35.0098 C 73.291 -50.3906 67.334 -64.5508 56.7871 -74.2676 C 56.25 -74.8047 55.2734 -74.8047 54.834 -74.2676 C 54.3945 -73.7793 54.5898 -72.9004 55.0781 -72.4609 C 65.1855 -63.1348 70.752 -49.7559 70.752 -35.0098 C 70.752 -20.3125 64.8438 -7.27539 55.0781 2.39258 C 54.5898 2.83203 54.3945 3.71094 54.834 4.19922 Z M 38.2812 -12.8418 C 38.7695 -12.3047 39.6484 -12.3047 40.2344 -12.793 C 46.0449 -18.5059 49.3652 -26.416 49.3652 -35.0098 C 49.3652 -43.6523 46.0449 -51.6602 40.2344 -57.2266 C 39.6484 -57.7637 38.7695 -57.7637 38.2812 -57.2266 C 37.8418 -56.7383 38.0371 -55.9082 38.5742 -55.4199 C 43.9453 -50.293 46.8262 -43.0176 46.8262 -35.0098 C 46.8262 -27.002 44.1895 -19.4824 38.5742 -14.6484 C 37.9395 -14.209 37.8418 -13.3301 38.2812 -12.8418 Z M 18.4082 -28.125 C 22.2656 -28.125 25.5371 -31.4453 25.5371 -35.2539 C 25.5371 -39.209 22.3145 -42.334 18.4082 -42.334 C 14.5508 -42.334 11.2793 -39.0137 11.2793 -35.1074 C 11.2793 -31.4453 14.6484 -28.125 18.4082 -28.125 Z"/>
  </g>
  <g id="Black-M" transform="matrix(1 0 0 1 2880.54 1126)">
   <path d="M 67.1387 17.3828 C 69.7754 20.4102 74.6094 20.6055 77.5879 17.3828 C 90.2832 3.51562 96.9727 -14.9414 96.9727 -35.0586 C 96.9727 -55.0781 90.2832 -73.6328 77.5879 -87.5 C 74.6094 -90.6738 69.7754 -90.4785 67.1387 -87.5 C 64.6484 -84.668 64.7949 -80.9082 67.4316 -78.0762 C 77.9297 -66.8457 83.3984 -51.6602 83.3984 -35.0586 C 83.3984 -18.4082 77.5879 -3.41797 67.4316 8.00781 C 64.8926 10.8887 64.6484 14.5996 67.1387 17.3828 Z M 50.4395 0.878906 C 53.0762 4.15039 57.666 4.6875 61.7188 0.634766 C 70.0684 -7.91016 74.0723 -21.0938 74.0723 -35.0586 C 74.0723 -48.9258 69.4824 -62.8906 61.7188 -70.7031 C 57.666 -74.8047 53.0762 -74.2188 50.4395 -70.9473 C 48.0469 -68.0176 48.9258 -64.502 51.4648 -61.7188 C 57.373 -55.2734 60.5469 -45.5566 60.5469 -35.0586 C 60.5469 -24.5117 57.373 -14.7949 51.4648 -8.34961 C 48.9258 -5.61523 48.0469 -2.09961 50.4395 0.878906 Z M 33.9844 -14.7461 C 36.377 -11.4746 41.3086 -11.2305 44.9219 -14.8438 C 49.1699 -19.1895 51.3184 -26.9531 51.3184 -35.0586 C 51.3184 -43.2129 49.1699 -50.9277 44.9219 -55.2734 C 41.3086 -58.9355 36.377 -58.6426 33.9844 -55.4199 C 31.9336 -52.5879 32.4707 -49.1699 34.4727 -46.3867 C 36.1328 -44.043 37.793 -38.916 37.793 -35.0586 C 37.793 -31.25 36.1328 -26.123 34.4727 -23.7793 C 32.4707 -20.9473 31.9336 -17.5781 33.9844 -14.7461 Z M 17.5781 -26.5625 C 22.3145 -26.5625 26.2695 -30.5176 26.2695 -35.2539 C 26.2695 -40.0879 22.3633 -43.9941 17.5781 -43.9941 C 12.7441 -43.9941 8.74023 -39.9414 8.74023 -35.1562 C 8.74023 -30.5176 12.793 -26.5625 17.5781 -26.5625 Z"/>
  </g>
  <g id="Heavy-M" transform="matrix(1 0 0 1 2585.27 1126)">
   <path d="M 65.5762 15.9668 C 67.9688 18.6523 72.2656 18.8477 74.9512 15.9668 C 87.4512 2.49023 94.0918 -15.4785 94.0918 -35.0586 C 94.0918 -54.541 87.4512 -72.6074 74.9512 -86.0352 C 72.2656 -88.9648 67.9688 -88.7695 65.5762 -86.084 C 63.2812 -83.4961 63.5254 -80.0781 65.9668 -77.4902 C 76.3672 -66.4062 81.8848 -51.4648 81.8848 -35.0586 C 81.8848 -18.6523 76.0742 -3.85742 65.9668 7.37305 C 63.5742 10.0098 63.2812 13.4277 65.5762 15.9668 Z M 49.5117 0.244141 C 51.8555 3.17383 56.0059 3.61328 59.5215 0 C 67.8223 -8.54492 72.0215 -21.3867 72.0215 -35.0586 C 72.0215 -48.6328 67.4316 -62.0605 59.5215 -70.1172 C 56.0059 -73.7305 51.8555 -73.291 49.5117 -70.3613 C 47.3145 -67.6758 48.0957 -64.4531 50.4395 -61.9141 C 56.4941 -55.2734 59.7656 -45.5566 59.7656 -35.0586 C 59.7656 -24.5605 56.4941 -14.8438 50.4395 -8.20312 C 48.0957 -5.61523 47.3145 -2.39258 49.5117 0.244141 Z M 33.6914 -14.9414 C 35.8887 -12.0117 40.3809 -11.8164 43.5059 -15.1367 C 47.7539 -19.6777 50 -27.1973 50 -35.0586 C 50 -42.9688 47.7539 -50.4883 43.5059 -55.0293 C 40.3809 -58.3496 35.8887 -58.1055 33.6914 -55.1758 C 31.7383 -52.6367 32.3242 -49.5117 34.2285 -46.875 C 36.1816 -44.2383 37.7441 -39.209 37.7441 -35.0586 C 37.7441 -30.957 36.1816 -25.9277 34.2285 -23.2422 C 32.3242 -20.6055 31.7383 -17.5293 33.6914 -14.9414 Z M 17.1875 -26.9531 C 21.7285 -26.9531 25.4883 -30.7129 25.4883 -35.2539 C 25.4883 -39.8926 21.7773 -43.6523 17.1875 -43.6523 C 12.5977 -43.6523 8.74023 -39.7461 8.74023 -35.1562 C 8.74023 -30.7129 12.6465 -26.9531 17.1875 -26.9531 Z"/>
  </g>
  <g id="Bold-M" transform="matrix(1 0 0 1 2290.15 1126)">
   <path d="M 63.8184 14.3555 C 65.918 16.6992 69.6289 16.8945 72.0703 14.3066 C 84.2285 1.31836 90.918 -16.1133 90.918 -35.0586 C 90.918 -53.9551 84.2773 -71.4844 72.0703 -84.4238 C 69.6289 -87.0117 65.918 -86.8164 63.8184 -84.4727 C 61.8164 -82.2266 62.0605 -79.1504 64.2578 -76.8066 C 74.6094 -65.918 80.127 -51.2207 80.127 -35.0586 C 80.127 -18.8965 74.4141 -4.3457 64.2578 6.68945 C 62.1094 9.0332 61.8164 12.1094 63.8184 14.3555 Z M 48.4375 -0.390625 C 50.5371 2.14844 54.1992 2.44141 57.1289 -0.634766 C 65.3809 -9.32617 69.6777 -21.7773 69.6777 -35.0586 C 69.6777 -48.3398 65.0879 -61.1816 57.1289 -69.4824 C 54.1992 -72.5586 50.5371 -72.2656 48.4375 -69.7266 C 46.4355 -67.334 47.1191 -64.4531 49.2676 -62.0605 C 55.5176 -55.2246 58.9355 -45.5566 58.9355 -35.0586 C 58.9355 -24.5605 55.5176 -14.8926 49.2676 -8.05664 C 47.1191 -5.66406 46.4355 -2.7832 48.4375 -0.390625 Z M 33.3496 -15.1855 C 35.3516 -12.5977 39.3066 -12.4512 41.9434 -15.3809 C 46.1914 -20.2148 48.5352 -27.4414 48.5352 -35.0586 C 48.5352 -42.7246 46.1914 -49.9512 41.9434 -54.7363 C 39.3066 -57.666 35.3516 -57.5195 33.3496 -54.9805 C 31.543 -52.6855 32.1777 -49.9023 33.9355 -47.4609 C 36.1816 -44.4336 37.7441 -39.5508 37.7441 -35.0586 C 37.7441 -30.6152 36.2305 -25.6836 33.9355 -22.7051 C 32.1289 -20.2637 31.543 -17.4805 33.3496 -15.1855 Z M 16.748 -27.3438 C 21.0449 -27.3438 24.6582 -30.957 24.6582 -35.2539 C 24.6582 -39.6484 21.1426 -43.2129 16.748 -43.2129 C 12.4023 -43.2129 8.74023 -39.502 8.74023 -35.1562 C 8.74023 -30.957 12.4512 -27.3438 16.748 -27.3438 Z"/>
  </g>
  <g id="Semibold-M" transform="matrix(1 0 0 1 1994.56 1126)">
   <path d="M 62.5977 13.2812 C 64.502 15.332 67.8223 15.5762 70.0195 13.1836 C 82.0312 0.488281 88.6719 -16.5039 88.6719 -35.0586 C 88.6719 -53.5645 82.0801 -70.7031 70.0195 -83.3008 C 67.8223 -85.6934 64.502 -85.498 62.5977 -83.3984 C 60.791 -81.3477 61.084 -78.5156 63.1348 -76.3184 C 73.3887 -65.625 78.9551 -51.0254 78.9551 -35.0586 C 78.9551 -19.0918 73.2422 -4.63867 63.1348 6.20117 C 61.084 8.39844 60.791 11.2305 62.5977 13.2812 Z M 47.7051 -0.878906 C 49.6094 1.41602 52.9297 1.61133 55.4688 -1.12305 C 63.6719 -9.81445 68.0664 -22.0215 68.0664 -35.0586 C 68.0664 -48.0957 63.5254 -60.5469 55.4688 -68.9941 C 52.9297 -71.7285 49.5605 -71.5332 47.7051 -69.2383 C 45.8496 -67.1387 46.4844 -64.4531 48.4863 -62.207 C 54.834 -55.2246 58.3008 -45.5566 58.3008 -35.0586 C 58.3008 -24.5605 54.834 -14.9414 48.4863 -7.91016 C 46.4844 -5.66406 45.8496 -3.02734 47.7051 -0.878906 Z M 33.1055 -15.332 C 34.9609 -13.0371 38.5742 -12.9395 40.8691 -15.5762 C 45.1172 -20.5566 47.4609 -27.5879 47.4609 -35.0586 C 47.4609 -42.5293 45.1172 -49.6094 40.8691 -54.541 C 38.5742 -57.2266 34.9609 -57.1289 33.1055 -54.834 C 31.3965 -52.7344 32.0312 -50.1953 33.6914 -47.8516 C 36.1816 -44.5801 37.7441 -39.7461 37.7441 -35.0586 C 37.7441 -30.3711 36.2305 -25.5371 33.6914 -22.3145 C 32.0312 -19.9707 31.3965 -17.4316 33.1055 -15.332 Z M 16.4551 -27.6367 C 20.6055 -27.6367 24.0723 -31.1035 24.0723 -35.2539 C 24.0723 -39.502 20.6543 -42.9199 16.4551 -42.9199 C 12.2559 -42.9199 8.74023 -39.3066 8.74023 -35.1562 C 8.74023 -31.1523 12.3047 -27.6367 16.4551 -27.6367 Z"/>
  </g>
  <g id="Medium-M" transform="matrix(1 0 0 1 1698.68 1126)">
   <path d="M 61.7188 12.4023 C 63.4277 14.3066 66.4551 14.5508 68.5059 12.3535 C 80.3223 -0.0976562 87.0117 -16.8457 87.0117 -35.0586 C 87.0117 -53.2715 80.4199 -70.1172 68.5059 -82.4707 C 66.4551 -84.668 63.4277 -84.4727 61.7188 -82.5684 C 60.0098 -80.6641 60.3027 -78.0273 62.2559 -75.9766 C 72.4609 -65.332 78.0273 -50.9277 78.0273 -35.0586 C 78.0273 -19.2383 72.3633 -4.88281 62.2559 5.85938 C 60.3027 7.91016 60.0098 10.5469 61.7188 12.4023 Z M 47.1191 -1.2207 C 48.877 0.878906 51.9531 0.976562 54.1992 -1.46484 C 62.3535 -10.2051 66.8457 -22.168 66.8457 -35.0586 C 66.8457 -47.9492 62.3047 -60.1074 54.1992 -68.6523 C 51.9531 -71.0938 48.877 -70.9961 47.1191 -68.8965 C 45.4102 -66.9434 45.9473 -64.4531 47.8516 -62.3047 C 54.3457 -55.2246 57.8613 -45.5566 57.8613 -35.0586 C 57.8613 -24.5605 54.2969 -14.9902 47.8516 -7.86133 C 45.9473 -5.71289 45.4102 -3.22266 47.1191 -1.2207 Z M 32.959 -15.4297 C 34.7168 -13.3301 37.9883 -13.2812 40.0391 -15.7227 C 44.2871 -20.8496 46.7285 -27.7344 46.7285 -35.0586 C 46.7285 -42.4316 44.2871 -49.3164 40.0391 -54.3945 C 37.9883 -56.8848 34.7168 -56.7871 32.959 -54.6875 C 31.2988 -52.7344 31.9336 -50.3906 33.5449 -48.1445 C 36.2305 -44.6777 37.7441 -39.9414 37.7441 -35.0586 C 37.7441 -30.2246 36.2305 -25.4395 33.5449 -22.0215 C 31.9336 -19.7754 31.2988 -17.3828 32.959 -15.4297 Z M 16.2109 -27.832 C 20.2637 -27.832 23.6328 -31.2012 23.6328 -35.2539 C 23.6328 -39.3555 20.3125 -42.6758 16.2109 -42.6758 C 12.1582 -42.6758 8.74023 -39.209 8.74023 -35.1562 C 8.74023 -31.25 12.207 -27.832 16.2109 -27.832 Z"/>
  </g>
  <g id="Regular-M" transform="matrix(1 0 0 1 1403.07 1126)">
   <path d="M 60.498 11.3281 C 62.0117 12.9883 64.6484 13.1836 66.5527 11.2305 C 78.125 -0.927734 84.8145 -17.2363 84.8145 -35.0586 C 84.8145 -52.8809 78.2227 -69.3359 66.5527 -81.3965 C 64.6484 -83.3496 62.0117 -83.1543 60.498 -81.4941 C 58.9844 -79.7852 59.3262 -77.3926 61.084 -75.5371 C 71.2891 -65.0391 76.8555 -50.7324 76.8555 -35.0586 C 76.8555 -19.3848 71.1914 -5.22461 61.084 5.37109 C 59.3262 7.22656 58.9844 9.66797 60.498 11.3281 Z M 46.3867 -1.66016 C 47.9492 0.146484 50.6836 0.146484 52.5879 -1.9043 C 60.6934 -10.6934 65.2344 -22.4121 65.2344 -35.0586 C 65.2344 -47.7051 60.7422 -59.4727 52.5879 -68.2129 C 50.6836 -70.3125 47.9492 -70.3125 46.3867 -68.457 C 44.8242 -66.6992 45.3125 -64.4043 47.0703 -62.4023 C 53.7109 -55.1758 57.2754 -45.6055 57.2754 -35.0586 C 57.2754 -24.5605 53.6133 -14.9902 47.0703 -7.71484 C 45.3125 -5.71289 44.8242 -3.4668 46.3867 -1.66016 Z M 32.7148 -15.5762 C 34.3262 -13.7695 37.2559 -13.7207 38.9648 -15.918 C 43.2129 -21.1914 45.7031 -27.8809 45.7031 -35.0586 C 45.7031 -42.2363 43.2129 -48.9746 38.9648 -54.1992 C 37.2559 -56.4453 34.3262 -56.3965 32.7148 -54.541 C 31.1523 -52.7832 31.8359 -50.6348 33.3496 -48.4863 C 36.2305 -44.8242 37.7441 -40.1367 37.7441 -35.0586 C 37.7441 -29.9805 36.2793 -25.293 33.3496 -21.6309 C 31.8359 -19.5312 31.1523 -17.334 32.7148 -15.5762 Z M 15.918 -28.125 C 19.8242 -28.125 23.0469 -31.3965 23.0469 -35.2539 C 23.0469 -39.209 19.873 -42.3828 15.918 -42.3828 C 12.0605 -42.3828 8.74023 -39.0137 8.74023 -35.1562 C 8.74023 -31.4453 12.1094 -28.125 15.918 -28.125 Z"/>
  </g>
  <g id="Light-M" transform="matrix(1 0 0 1 1107.8 1126)">
   <path d="M 59.0332 10.2051 C 60.2051 11.4746 62.207 11.6211 63.623 10.1562 C 75.1465 -1.66016 81.9336 -17.5781 81.9336 -35.0586 C 81.9336 -52.5879 75.3418 -68.7012 63.623 -80.2734 C 62.207 -81.7871 60.2051 -81.6406 59.0332 -80.3711 C 57.9102 -79.1016 58.1543 -77.1973 59.4727 -75.8301 C 70.0195 -65.3809 75.8301 -50.9766 75.8301 -35.0586 C 75.8301 -19.1895 69.8242 -4.98047 59.4727 5.66406 C 58.1543 7.08008 57.9102 8.93555 59.0332 10.2051 Z M 45.166 -2.58789 C 46.3867 -1.2207 48.4863 -1.2207 49.9023 -2.7832 C 57.959 -11.2793 62.6465 -22.6562 62.6465 -35.0586 C 62.6465 -47.5098 58.1055 -58.9844 49.9023 -67.3828 C 48.4863 -68.9453 46.3379 -68.9453 45.166 -67.5293 C 43.9941 -66.2109 44.3848 -64.4043 45.7031 -62.9395 C 52.7344 -55.7129 56.543 -45.8496 56.543 -35.0586 C 56.543 -24.2676 52.5879 -14.5508 45.7031 -7.22656 C 44.3848 -5.71289 43.9941 -3.95508 45.166 -2.58789 Z M 31.7871 -16.3086 C 33.0078 -14.8926 35.2539 -14.8926 36.5723 -16.5039 C 40.918 -21.5332 43.4082 -28.0762 43.4082 -35.0586 C 43.4082 -42.0898 40.918 -48.6328 36.5723 -53.6133 C 35.2539 -55.2734 33.0078 -55.2246 31.7871 -53.8574 C 30.5664 -52.4902 31.1035 -50.8301 32.2754 -49.2188 C 35.5469 -45.459 37.3047 -40.5273 37.3047 -35.0586 C 37.3047 -29.6387 35.6445 -24.6094 32.2754 -20.8984 C 31.0547 -19.3359 30.5664 -17.627 31.7871 -16.3086 Z M 15.4297 -28.6133 C 18.9941 -28.6133 22.0703 -31.6406 22.0703 -35.2539 C 22.0703 -38.916 19.0918 -41.8457 15.4297 -41.8457 C 11.8164 -41.8457 8.74023 -38.7695 8.74023 -35.1562 C 8.74023 -31.6895 11.8652 -28.6133 15.4297 -28.6133 Z"/>
  </g>
  <g id="Thin-M" transform="matrix(1 0 0 1 813.014 1126)">
   <path d="M 57.0801 8.74023 C 57.7637 9.47266 58.9844 9.57031 59.8145 8.74023 C 71.1426 -2.68555 78.0762 -17.9688 78.0762 -35.0586 C 78.0762 -52.1484 71.4844 -67.8223 59.8145 -78.8574 C 58.9844 -79.7363 57.7637 -79.6387 57.0801 -78.9062 C 56.4453 -78.125 56.5918 -77.002 57.373 -76.2207 C 68.3594 -65.8203 74.4141 -51.2207 74.4141 -35.0586 C 74.4141 -18.9453 68.0176 -4.6875 57.373 6.05469 C 56.5918 6.83594 56.4453 8.00781 57.0801 8.74023 Z M 43.6035 -3.80859 C 44.2871 -3.02734 45.5566 -3.02734 46.4355 -3.90625 C 54.3457 -11.9629 59.1797 -22.9492 59.1797 -35.0586 C 59.1797 -47.168 54.5898 -58.3496 46.4355 -66.2598 C 45.5566 -67.1387 44.2383 -67.1387 43.6035 -66.3086 C 42.9199 -65.5273 43.1641 -64.4043 43.9453 -63.623 C 51.416 -56.3965 55.5176 -46.2402 55.5176 -35.0586 C 55.5176 -23.9258 51.2207 -13.9648 43.9453 -6.54297 C 43.1641 -5.71289 42.9199 -4.58984 43.6035 -3.80859 Z M 30.5176 -17.2363 C 31.25 -16.4062 32.5684 -16.4062 33.3496 -17.334 C 37.793 -21.9727 40.332 -28.2715 40.332 -35.0586 C 40.332 -41.8945 37.793 -48.2422 33.3496 -52.832 C 32.5684 -53.7598 31.25 -53.7109 30.5176 -52.9297 C 29.834 -52.1484 30.127 -51.0742 30.8594 -50.1953 C 34.668 -46.3379 36.6699 -40.9668 36.6699 -35.0586 C 36.6699 -29.1992 34.8145 -23.6816 30.8594 -19.9707 C 30.0781 -19.0918 29.834 -18.0176 30.5176 -17.2363 Z M 14.7461 -29.2969 C 17.9688 -29.2969 20.7031 -32.0312 20.7031 -35.2539 C 20.7031 -38.5742 18.0176 -41.2109 14.7461 -41.2109 C 11.5234 -41.2109 8.74023 -38.4277 8.74023 -35.1562 C 8.74023 -32.0312 11.5723 -29.2969 14.7461 -29.2969 Z"/>
  </g>
  <g id="Ultralight-M" transform="matrix(1 0 0 1 517.304 1126)">
   <path d="M 56.1035 8.00781 C 56.4941 8.44727 57.3242 8.54492 57.8613 8.00781 C 69.0918 -3.22266 76.0742 -18.2129 76.0742 -35.0586 C 76.0742 -51.9531 69.5312 -67.3828 57.8613 -78.125 C 57.3242 -78.6621 56.4941 -78.6133 56.1035 -78.125 C 55.6641 -77.6855 55.8105 -76.9043 56.25 -76.416 C 67.5293 -66.0645 73.6816 -51.3672 73.6816 -35.0586 C 73.6816 -18.7988 67.041 -4.54102 56.25 6.25 C 55.8105 6.73828 55.6641 7.51953 56.1035 8.00781 Z M 42.7734 -4.44336 C 43.2617 -3.90625 44.0918 -3.90625 44.6289 -4.44336 C 52.5391 -12.3535 57.373 -23.1445 57.373 -35.0586 C 57.373 -47.0215 52.7832 -58.0566 44.6289 -65.6738 C 44.0918 -66.2109 43.1641 -66.2109 42.7734 -65.6738 C 42.334 -65.2344 42.5293 -64.4043 43.0176 -63.9648 C 50.7324 -56.7383 55.0293 -46.4355 55.0293 -35.0586 C 55.0293 -23.7305 50.4883 -13.6719 43.0176 -6.20117 C 42.5293 -5.71289 42.334 -4.93164 42.7734 -4.44336 Z M 29.8828 -17.7246 C 30.3711 -17.1875 31.2012 -17.1875 31.7383 -17.7246 C 36.2305 -22.168 38.7695 -28.3691 38.7695 -35.0586 C 38.7695 -41.7969 36.2305 -47.998 31.7383 -52.4414 C 31.2012 -52.9785 30.3711 -52.9785 29.8828 -52.4414 C 29.4434 -51.9531 29.6387 -51.2207 30.127 -50.6836 C 34.1797 -46.7773 36.377 -41.2109 36.377 -35.0586 C 36.377 -28.9551 34.375 -23.1934 30.127 -19.4336 C 29.5898 -18.9941 29.4434 -18.2129 29.8828 -17.7246 Z M 14.4043 -29.6387 C 17.4316 -29.6387 20.0195 -32.2266 20.0195 -35.2539 C 20.0195 -38.3789 17.4805 -40.8203 14.4043 -40.8203 C 11.3281 -40.8203 8.74023 -38.2324 8.74023 -35.1562 C 8.74023 -32.2266 11.4258 -29.6387 14.4043 -29.6387 Z"/>
  </g>
  <g id="Black-S" transform="matrix(1 0 0 1 2892.09 696)">
   <path d="M 52.4902 5.9082 C 54.541 8.25195 58.3008 8.39844 60.5957 5.9082 C 70.5566 -4.93164 75.7812 -19.3848 75.7812 -35.1074 C 75.7812 -50.7324 70.5566 -65.2344 60.5957 -76.0742 C 58.3008 -78.5645 54.541 -78.418 52.4902 -76.0742 C 50.5371 -73.877 50.6836 -70.9473 52.7344 -68.75 C 60.9375 -59.9609 65.2344 -48.0957 65.2344 -35.1074 C 65.2344 -22.0703 60.6934 -10.3516 52.7344 -1.41602 C 50.7324 0.830078 50.5371 3.71094 52.4902 5.9082 Z M 39.4531 -6.98242 C 41.5039 -4.44336 45.0684 -4.00391 48.1934 -7.17773 C 54.7363 -13.8672 57.9102 -24.1699 57.9102 -35.1074 C 57.9102 -45.9473 54.2969 -56.8359 48.1934 -62.9883 C 45.0684 -66.1621 41.5039 -65.7227 39.4531 -63.1836 C 37.5977 -60.8887 38.2812 -58.1543 40.2344 -56.0059 C 44.873 -50.9277 47.3633 -43.3105 47.3633 -35.1074 C 47.3633 -26.8555 44.873 -19.2383 40.2344 -14.1602 C 38.2812 -12.0117 37.5977 -9.27734 39.4531 -6.98242 Z M 26.6113 -19.1895 C 28.4668 -16.6504 32.3242 -16.4551 35.1074 -19.2871 C 38.4277 -22.7051 40.1367 -28.7598 40.1367 -35.1074 C 40.1367 -41.4551 38.4277 -47.5098 35.1074 -50.9277 C 32.3242 -53.7598 28.4668 -53.5645 26.6113 -51.0254 C 25 -48.8281 25.4395 -46.1914 27.002 -43.9941 C 28.3203 -42.1387 29.5898 -38.1348 29.5898 -35.1074 C 29.5898 -32.0801 28.3203 -28.0762 27.002 -26.2207 C 25.4395 -24.0234 25 -21.3867 26.6113 -19.1895 Z M 13.7207 -28.4668 C 17.4316 -28.4668 20.5078 -31.543 20.5078 -35.2539 C 20.5078 -39.0137 17.4805 -42.0898 13.7207 -42.0898 C 9.96094 -42.0898 6.83594 -38.916 6.83594 -35.1562 C 6.83594 -31.543 10.0098 -28.4668 13.7207 -28.4668 Z"/>
  </g>
  <g id="Heavy-S" transform="matrix(1 0 0 1 2596.31 696)">
   <path d="M 51.4648 4.93164 C 53.3203 7.08008 56.7871 7.22656 58.9355 4.93164 C 68.7012 -5.66406 73.9258 -19.7754 73.9258 -35.1074 C 73.9258 -50.3906 68.7012 -64.5508 58.9355 -75.0977 C 56.7871 -77.3926 53.3203 -77.2461 51.4648 -75.0977 C 49.6582 -73.0957 49.8047 -70.3125 51.7578 -68.2617 C 59.8633 -59.5703 64.1602 -47.9004 64.1602 -35.1074 C 64.1602 -22.2656 59.668 -10.6934 51.7578 -1.9043 C 49.8535 0.195312 49.6582 2.88086 51.4648 4.93164 Z M 38.8672 -7.32422 C 40.7715 -5.0293 44.043 -4.6875 46.8262 -7.51953 C 53.3691 -14.3066 56.5918 -24.3652 56.5918 -35.1074 C 56.5918 -45.752 53.0273 -56.2988 46.8262 -62.6465 C 44.043 -65.4785 40.7715 -65.1855 38.8672 -62.8418 C 37.1094 -60.6934 37.7441 -58.1543 39.5996 -56.0547 C 44.3359 -50.8301 46.875 -43.3105 46.875 -35.1074 C 46.875 -26.9043 44.3359 -19.3359 39.5996 -14.1113 C 37.7441 -12.0117 37.1094 -9.47266 38.8672 -7.32422 Z M 26.4648 -19.2383 C 28.2227 -16.9434 31.8359 -16.7969 34.3262 -19.4336 C 37.5977 -23.0469 39.3555 -28.9062 39.3555 -35.1074 C 39.3555 -41.3086 37.5977 -47.168 34.3262 -50.7812 C 31.8359 -53.418 28.2227 -53.2715 26.4648 -50.9766 C 24.9023 -48.877 25.3906 -46.4355 26.9043 -44.2871 C 28.418 -42.1875 29.6387 -38.3301 29.6387 -35.1074 C 29.6387 -31.8848 28.418 -28.0273 26.9043 -25.9277 C 25.3906 -23.7793 24.9023 -21.3379 26.4648 -19.2383 Z M 13.4766 -28.7109 C 17.0898 -28.7109 20.0684 -31.6895 20.0684 -35.2539 C 20.0684 -38.8672 17.1387 -41.8457 13.4766 -41.8457 C 9.86328 -41.8457 6.83594 -38.7695 6.83594 -35.1562 C 6.83594 -31.6895 9.91211 -28.7109 13.4766 -28.7109 Z"/>
  </g>
  <g id="Bold-S" transform="matrix(1 0 0 1 2300.65 696)">
   <path d="M 50.293 3.85742 C 52.002 5.76172 55.0781 5.95703 57.0312 3.80859 C 66.6016 -6.44531 71.8262 -20.2148 71.8262 -35.1074 C 71.8262 -50 66.6016 -63.7207 57.0312 -73.9746 C 55.0781 -76.123 52.002 -75.9766 50.293 -74.0234 C 48.6328 -72.168 48.877 -69.6289 50.6836 -67.6758 C 58.6914 -59.1797 62.9883 -47.7051 62.9883 -35.1074 C 62.9883 -22.5098 58.5449 -11.084 50.6836 -2.49023 C 48.877 -0.537109 48.6328 2.00195 50.293 3.85742 Z M 38.1836 -7.71484 C 39.9414 -5.66406 42.9199 -5.41992 45.3125 -7.95898 C 51.8066 -14.7949 55.127 -24.6094 55.127 -35.1074 C 55.127 -45.5566 51.5625 -55.6641 45.3125 -62.2559 C 42.9199 -64.7461 39.8926 -64.5508 38.1836 -62.4512 C 36.5723 -60.498 37.1094 -58.1543 38.8672 -56.1523 C 43.7012 -50.7812 46.2891 -43.2617 46.2891 -35.1074 C 46.2891 -26.9531 43.7012 -19.4336 38.8672 -14.0625 C 37.1094 -12.0605 36.5723 -9.66797 38.1836 -7.71484 Z M 26.3672 -19.3359 C 27.9785 -17.2363 31.25 -17.1387 33.3984 -19.5312 C 36.7188 -23.3887 38.5254 -29.1016 38.5254 -35.1074 C 38.5254 -41.1133 36.7188 -46.8262 33.3984 -50.6836 C 31.25 -53.0762 27.9785 -52.9785 26.3672 -50.8789 C 24.8535 -48.9746 25.3418 -46.6797 26.8066 -44.6289 C 28.5156 -42.2852 29.6875 -38.5254 29.6875 -35.1074 C 29.6875 -31.6895 28.5156 -27.9297 26.8066 -25.5859 C 25.3418 -23.5352 24.8535 -21.2402 26.3672 -19.3359 Z M 13.2324 -28.9551 C 16.6504 -28.9551 19.5312 -31.7871 19.5312 -35.2539 C 19.5312 -38.7695 16.6992 -41.6016 13.2324 -41.6016 C 9.76562 -41.6016 6.83594 -38.623 6.83594 -35.1562 C 6.83594 -31.8359 9.81445 -28.9551 13.2324 -28.9551 Z"/>
  </g>
  <g id="Semibold-S" transform="matrix(1 0 0 1 2004.67 696)">
   <path d="M 49.5117 3.07617 C 51.0742 4.88281 53.8574 5.0293 55.7617 3.02734 C 65.1855 -7.03125 70.3613 -20.5078 70.3613 -35.1074 C 70.3613 -49.707 65.1855 -63.1836 55.7617 -73.2422 C 53.8574 -75.2441 51.0742 -75.0488 49.5117 -73.291 C 47.9492 -71.582 48.1934 -69.1406 49.9512 -67.334 C 57.8613 -58.8867 62.1582 -47.5586 62.1582 -35.1074 C 62.1582 -22.6562 57.7637 -11.377 49.9512 -2.88086 C 48.1934 -1.02539 47.9492 1.36719 49.5117 3.07617 Z M 37.7441 -8.00781 C 39.3555 -6.10352 42.1387 -5.95703 44.2871 -8.25195 C 50.7324 -15.1367 54.1504 -24.8047 54.1504 -35.1074 C 54.1504 -45.4102 50.5859 -55.2246 44.2871 -61.9629 C 42.1387 -64.2578 39.3555 -64.1113 37.7441 -62.207 C 36.1816 -60.3516 36.6699 -58.1055 38.3789 -56.2012 C 43.2617 -50.7324 45.8984 -43.2617 45.8984 -35.1074 C 45.8984 -26.9531 43.2617 -19.4824 38.3789 -14.0137 C 36.6699 -12.0605 36.1816 -9.81445 37.7441 -8.00781 Z M 26.2207 -19.3848 C 27.832 -17.4805 30.8594 -17.3828 32.7637 -19.6289 C 36.084 -23.6328 37.9395 -29.1992 37.9395 -35.1074 C 37.9395 -41.0156 36.084 -46.582 32.7637 -50.5859 C 30.8594 -52.832 27.832 -52.7344 26.2207 -50.8301 C 24.7559 -49.0234 25.3418 -46.875 26.7578 -44.873 C 28.5645 -42.334 29.6875 -38.6719 29.6875 -35.1074 C 29.6875 -31.543 28.5645 -27.8809 26.7578 -25.3418 C 25.3418 -23.3398 24.7559 -21.1914 26.2207 -19.3848 Z M 13.0371 -29.1016 C 16.3574 -29.1016 19.1895 -31.8848 19.1895 -35.2539 C 19.1895 -38.6719 16.4062 -41.4062 13.0371 -41.4062 C 9.66797 -41.4062 6.83594 -38.5254 6.83594 -35.1562 C 6.83594 -31.9336 9.7168 -29.1016 13.0371 -29.1016 Z"/>
  </g>
  <g id="Medium-S" transform="matrix(1 0 0 1 1708.49 696)">
   <path d="M 48.877 2.53906 C 50.3906 4.19922 52.9785 4.3457 54.7852 2.44141 C 64.1113 -7.42188 69.2871 -20.7031 69.2871 -35.1074 C 69.2871 -49.5117 64.1113 -62.793 54.7852 -72.6562 C 52.9785 -74.5605 50.3906 -74.3652 48.877 -72.7539 C 47.4121 -71.0938 47.7051 -68.7988 49.3652 -67.041 C 57.2754 -58.6914 61.5234 -47.4609 61.5234 -35.1074 C 61.5234 -22.7539 57.1777 -11.5723 49.3652 -3.17383 C 47.7051 -1.41602 47.4121 0.878906 48.877 2.53906 Z M 37.3535 -8.20312 C 38.916 -6.39648 41.5527 -6.34766 43.5059 -8.44727 C 49.9023 -15.4297 53.3691 -24.9023 53.3691 -35.1074 C 53.3691 -45.2637 49.8535 -54.8828 43.5059 -61.7676 C 41.5527 -63.8672 38.916 -63.7695 37.3535 -61.9629 C 35.8887 -60.2539 36.377 -58.1055 38.0371 -56.25 C 42.9688 -50.6836 45.6055 -43.2129 45.6055 -35.1074 C 45.6055 -27.002 42.9199 -19.5312 38.0371 -13.9648 C 36.377 -12.1094 35.8887 -9.96094 37.3535 -8.20312 Z M 26.1719 -19.4336 C 27.6855 -17.627 30.5664 -17.5781 32.3242 -19.7266 C 35.5957 -23.8281 37.5 -29.2969 37.5 -35.1074 C 37.5 -40.918 35.5957 -46.3867 32.3242 -50.4883 C 30.5664 -52.6367 27.6855 -52.5879 26.1719 -50.7812 C 24.707 -49.0723 25.293 -47.0215 26.709 -45.0684 C 28.6133 -42.3828 29.7363 -38.7695 29.7363 -35.1074 C 29.7363 -31.4453 28.6621 -27.832 26.709 -25.1465 C 25.293 -23.1934 24.707 -21.1426 26.1719 -19.4336 Z M 12.8906 -29.248 C 16.1621 -29.248 18.8965 -31.9824 18.8965 -35.2539 C 18.8965 -38.5742 16.2109 -41.2598 12.8906 -41.2598 C 9.61914 -41.2598 6.83594 -38.4277 6.83594 -35.1562 C 6.83594 -32.0312 9.66797 -29.248 12.8906 -29.248 Z"/>
  </g>
  <g id="Regular-S" transform="matrix(1 0 0 1 1412.49 696)">
   <path d="M 48.0957 1.75781 C 49.4629 3.27148 51.8066 3.4668 53.5156 1.70898 C 62.6465 -7.95898 67.8711 -20.9961 67.8711 -35.1074 C 67.8711 -49.2188 62.6953 -62.2559 53.5156 -71.9238 C 51.8066 -73.6816 49.4629 -73.4863 48.0957 -71.9727 C 46.7285 -70.5078 47.0215 -68.3105 48.6328 -66.6504 C 56.4453 -58.3984 60.7422 -47.3145 60.7422 -35.1074 C 60.7422 -22.9004 56.4453 -11.8164 48.6328 -3.56445 C 47.0215 -1.9043 46.7285 0.292969 48.0957 1.75781 Z M 36.9141 -8.49609 C 38.3301 -6.83594 40.7715 -6.83594 42.4805 -8.74023 C 48.8281 -15.7715 52.3926 -25.0977 52.3926 -35.1074 C 52.3926 -45.1172 48.877 -54.4434 42.4805 -61.4746 C 40.7715 -63.3789 38.3301 -63.3789 36.9141 -61.7188 C 35.498 -60.1074 35.9375 -58.1055 37.5488 -56.2988 C 42.5293 -50.6348 45.2637 -43.2129 45.2637 -35.1074 C 45.2637 -27.002 42.5293 -19.6289 37.5488 -13.916 C 35.9375 -12.1094 35.498 -10.1074 36.9141 -8.49609 Z M 26.0742 -19.4824 C 27.5391 -17.8711 30.1758 -17.8223 31.6895 -19.8242 C 35.0098 -24.0723 36.9141 -29.3945 36.9141 -35.1074 C 36.9141 -40.8203 35.0098 -46.1426 31.6895 -50.3906 C 30.1758 -52.3926 27.5391 -52.3438 26.0742 -50.7324 C 24.6582 -49.1211 25.293 -47.2168 26.6602 -45.2637 C 28.7109 -42.4316 29.7852 -38.916 29.7852 -35.1074 C 29.7852 -31.2988 28.7109 -27.7832 26.6602 -24.9512 C 25.293 -22.998 24.6582 -21.0938 26.0742 -19.4824 Z M 12.6953 -29.4434 C 15.8691 -29.4434 18.5547 -32.0801 18.5547 -35.2539 C 18.5547 -38.4766 15.918 -41.0645 12.6953 -41.0645 C 9.52148 -41.0645 6.83594 -38.3301 6.83594 -35.1562 C 6.83594 -32.1289 9.57031 -29.4434 12.6953 -29.4434 Z"/>
  </g>
  <g id="Light-S" transform="matrix(1 0 0 1 1117.07 696)">
   <path d="M 46.8262 0.78125 C 47.8516 1.95312 49.6582 2.09961 50.9766 0.732422 C 60.0098 -8.64258 65.2832 -21.2891 65.2832 -35.1074 C 65.2832 -48.9258 60.1074 -61.6699 50.9766 -70.9473 C 49.6582 -72.3145 47.8516 -72.168 46.8262 -70.9961 C 45.752 -69.873 45.9961 -68.1641 47.2168 -66.8945 C 55.3223 -58.6914 59.7656 -47.4609 59.7656 -35.1074 C 59.7656 -22.7539 55.2246 -11.6211 47.2168 -3.32031 C 45.9961 -2.05078 45.752 -0.341797 46.8262 0.78125 Z M 35.8398 -9.32617 C 36.9141 -8.05664 38.8184 -8.05664 40.1367 -9.47266 C 46.4355 -16.2598 50.0488 -25.293 50.0488 -35.1074 C 50.0488 -44.9219 46.5332 -54.0527 40.1367 -60.7422 C 38.8184 -62.1582 36.9141 -62.1582 35.8398 -60.8887 C 34.7656 -59.668 35.1074 -58.1055 36.3281 -56.7383 C 41.6504 -51.0742 44.5801 -43.457 44.5801 -35.1074 C 44.5801 -26.7578 41.6016 -19.1895 36.3281 -13.4766 C 35.1074 -12.1094 34.7656 -10.5469 35.8398 -9.32617 Z M 25.2441 -20.1172 C 26.3672 -18.8477 28.3691 -18.8477 29.541 -20.3613 C 32.9102 -24.3652 34.8633 -29.541 34.8633 -35.1074 C 34.8633 -40.6738 32.9102 -45.8496 29.541 -49.8535 C 28.3691 -51.3672 26.3672 -51.3672 25.2441 -50.0977 C 24.1699 -48.877 24.6094 -47.3633 25.6836 -45.9473 C 28.125 -43.0176 29.3457 -39.209 29.3457 -35.1074 C 29.3457 -31.0059 28.1738 -27.1484 25.6836 -24.2676 C 24.6094 -22.8516 24.1699 -21.3379 25.2441 -20.1172 Z M 12.2559 -29.8828 C 15.1855 -29.8828 17.627 -32.3242 17.627 -35.2539 C 17.627 -38.2324 15.2344 -40.625 12.2559 -40.625 C 9.32617 -40.625 6.83594 -38.0859 6.83594 -35.1562 C 6.83594 -32.373 9.375 -29.8828 12.2559 -29.8828 Z"/>
  </g>
  <g id="Thin-S" transform="matrix(1 0 0 1 822.072 696)">
   <path d="M 45.0684 -0.488281 C 45.7031 0.195312 46.8262 0.292969 47.6074 -0.537109 C 56.4941 -9.52148 61.8652 -21.6309 61.8652 -35.1074 C 61.8652 -48.584 56.7383 -60.9375 47.6074 -69.6777 C 46.8262 -70.5078 45.7031 -70.4102 45.0684 -69.7266 C 44.4824 -69.043 44.6289 -68.0176 45.3125 -67.2363 C 53.8574 -59.1309 58.5449 -47.7051 58.5449 -35.1074 C 58.5449 -22.5098 53.6133 -11.377 45.3125 -2.97852 C 44.6289 -2.19727 44.4824 -1.17188 45.0684 -0.488281 Z M 34.4238 -10.4004 C 35.1074 -9.61914 36.2305 -9.61914 37.0117 -10.4492 C 43.2617 -16.8945 47.0215 -25.5371 47.0215 -35.1074 C 47.0215 -44.6777 43.4082 -53.4668 37.0117 -59.7656 C 36.2305 -60.5957 35.0586 -60.5957 34.4238 -59.8145 C 33.8379 -59.1309 34.0332 -58.1055 34.7656 -57.3242 C 40.5273 -51.6602 43.7012 -43.7988 43.7012 -35.1074 C 43.7012 -26.416 40.3809 -18.7012 34.7656 -12.8906 C 34.0332 -12.1094 33.8379 -11.084 34.4238 -10.4004 Z M 24.1211 -20.9473 C 24.8047 -20.2148 26.0254 -20.166 26.7578 -21.0449 C 30.1758 -24.7559 32.1777 -29.7363 32.1777 -35.1074 C 32.1777 -40.4785 30.1758 -45.5078 26.7578 -49.1699 C 26.0254 -50.0488 24.8047 -50 24.1211 -49.2676 C 23.5352 -48.5352 23.7793 -47.6074 24.4141 -46.7773 C 27.2949 -43.75 28.8574 -39.6484 28.8574 -35.1074 C 28.8574 -30.5664 27.4414 -26.3672 24.4141 -23.4375 C 23.7305 -22.6562 23.5352 -21.6797 24.1211 -20.9473 Z M 11.6699 -30.4199 C 14.2578 -30.4199 16.4551 -32.666 16.4551 -35.2539 C 16.4551 -37.8906 14.3066 -40.0391 11.6699 -40.0391 C 9.08203 -40.0391 6.83594 -37.793 6.83594 -35.1562 C 6.83594 -32.666 9.13086 -30.4199 11.6699 -30.4199 Z"/>
  </g>
  <g id="Ultralight-S" transform="matrix(1 0 0 1 526.239 696)">
   <path d="M 44.1895 -1.17188 C 44.5801 -0.732422 45.3613 -0.683594 45.8496 -1.17188 C 54.6875 -10.0098 60.1074 -21.8262 60.1074 -35.1074 C 60.1074 -48.3887 54.9805 -60.5469 45.8496 -69.043 C 45.3613 -69.5312 44.5801 -69.4824 44.1895 -69.043 C 43.7988 -68.6035 43.8965 -67.8711 44.3848 -67.4316 C 53.125 -59.3262 57.9102 -47.8027 57.9102 -35.1074 C 57.9102 -22.4121 52.7832 -11.2305 44.3848 -2.7832 C 43.8965 -2.34375 43.7988 -1.61133 44.1895 -1.17188 Z M 33.6914 -10.9375 C 34.1309 -10.4492 34.9121 -10.4492 35.4004 -10.9863 C 41.6504 -17.1875 45.4102 -25.6836 45.4102 -35.1074 C 45.4102 -44.5312 41.7969 -53.1738 35.4004 -59.2285 C 34.9121 -59.7656 34.082 -59.7656 33.6914 -59.2773 C 33.3008 -58.7891 33.4961 -58.1055 33.9355 -57.666 C 39.9414 -52.002 43.2129 -43.9453 43.2129 -35.1074 C 43.2129 -26.2695 39.7461 -18.4082 33.9355 -12.5488 C 33.4961 -12.1094 33.3008 -11.4258 33.6914 -10.9375 Z M 23.584 -21.3867 C 24.0234 -20.8984 24.8047 -20.8984 25.293 -21.3867 C 28.8086 -24.9512 30.7617 -29.834 30.7617 -35.1074 C 30.7617 -40.3809 28.8086 -45.3125 25.293 -48.8281 C 24.8047 -49.3164 24.0234 -49.3164 23.584 -48.8281 C 23.1934 -48.3887 23.3398 -47.7051 23.7793 -47.2168 C 26.9043 -44.1406 28.5645 -39.8438 28.5645 -35.1074 C 28.5645 -30.3711 27.0508 -25.9277 23.7793 -22.998 C 23.291 -22.5586 23.1934 -21.8262 23.584 -21.3867 Z M 11.3281 -30.7617 C 13.7695 -30.7617 15.8691 -32.8125 15.8691 -35.2539 C 15.8691 -37.7441 13.8184 -39.6973 11.3281 -39.6973 C 8.93555 -39.6973 6.83594 -37.6465 6.83594 -35.1562 C 6.83594 -32.8125 8.98438 -30.7617 11.3281 -30.7617 Z"/>
  </g>
 </g>
</svg>
