<?xml version="1.0" encoding="UTF-8"?>
<!--Generator: Apple Native CoreSVG 149-->
<!DOCTYPE svg
PUBLIC "-//W3C//DTD SVG 1.1//EN"
       "http://www.w3.org/Graphics/SVG/1.1/DTD/svg11.dtd">
<svg version="1.1" xmlns="http://www.w3.org/2000/svg" xmlns:xlink="http://www.w3.org/1999/xlink" width="3300" height="2200">
 <!--glyph: "uni10026B.medium", point size: 100.000000, font version: "Version 16.0d18e1", template writer version: "8"-->
 <g id="Notes">
  <rect height="2200" id="artboard" style="fill:white;opacity:1" width="3300" x="0" y="0"/>
  <line id="" style="fill:none;stroke:black;opacity:1;stroke-width:0.5;" x1="263" x2="3036" y1="292" y2="292"/>
  <text style="stroke:none;fill:black;font-family:-apple-system,&quot;SF Pro Display&quot;,&quot;SF Pro Text&quot;,Helvetica,sans-serif;font-weight:bold;" transform="matrix(1 0 0 1 263 322)">Weight/Scale Variations</text>
  <text style="stroke:none;fill:black;font-family:-apple-system,&quot;SF Pro Display&quot;,&quot;SF Pro Text&quot;,Helvetica,sans-serif;text-anchor:middle;" transform="matrix(1 0 0 1 559.711 322)">Ultralight</text>
  <text style="stroke:none;fill:black;font-family:-apple-system,&quot;SF Pro Display&quot;,&quot;SF Pro Text&quot;,Helvetica,sans-serif;text-anchor:middle;" transform="matrix(1 0 0 1 856.422 322)">Thin</text>
  <text style="stroke:none;fill:black;font-family:-apple-system,&quot;SF Pro Display&quot;,&quot;SF Pro Text&quot;,Helvetica,sans-serif;text-anchor:middle;" transform="matrix(1 0 0 1 1153.13 322)">Light</text>
  <text style="stroke:none;fill:black;font-family:-apple-system,&quot;SF Pro Display&quot;,&quot;SF Pro Text&quot;,Helvetica,sans-serif;text-anchor:middle;" transform="matrix(1 0 0 1 1449.84 322)">Regular</text>
  <text style="stroke:none;fill:black;font-family:-apple-system,&quot;SF Pro Display&quot;,&quot;SF Pro Text&quot;,Helvetica,sans-serif;text-anchor:middle;" transform="matrix(1 0 0 1 1746.56 322)">Medium</text>
  <text style="stroke:none;fill:black;font-family:-apple-system,&quot;SF Pro Display&quot;,&quot;SF Pro Text&quot;,Helvetica,sans-serif;text-anchor:middle;" transform="matrix(1 0 0 1 2043.27 322)">Semibold</text>
  <text style="stroke:none;fill:black;font-family:-apple-system,&quot;SF Pro Display&quot;,&quot;SF Pro Text&quot;,Helvetica,sans-serif;text-anchor:middle;" transform="matrix(1 0 0 1 2339.98 322)">Bold</text>
  <text style="stroke:none;fill:black;font-family:-apple-system,&quot;SF Pro Display&quot;,&quot;SF Pro Text&quot;,Helvetica,sans-serif;text-anchor:middle;" transform="matrix(1 0 0 1 2636.69 322)">Heavy</text>
  <text style="stroke:none;fill:black;font-family:-apple-system,&quot;SF Pro Display&quot;,&quot;SF Pro Text&quot;,Helvetica,sans-serif;text-anchor:middle;" transform="matrix(1 0 0 1 2933.4 322)">Black</text>
  <line id="" style="fill:none;stroke:black;opacity:1;stroke-width:0.5;" x1="263" x2="3036" y1="1903" y2="1903"/>
  <g id="" transform="matrix(1 0 0 1 263 1933)">
   <path d="M9.24805 0.830078C13.5547 0.830078 17.1387-2.74414 17.1387-7.05078C17.1387-11.3574 13.5449-14.9316 9.23828-14.9316C4.94141-14.9316 1.36719-11.3574 1.36719-7.05078C1.36719-2.74414 4.95117 0.830078 9.24805 0.830078ZM9.24805-0.654297C5.70312-0.654297 2.87109-3.49609 2.87109-7.05078C2.87109-10.6055 5.69336-13.4473 9.23828-13.4473C12.793-13.4473 15.6348-10.6055 15.6445-7.05078C15.6543-3.49609 12.8027-0.654297 9.24805-0.654297ZM6.39648-6.31836L8.50586-6.31836L8.50586-4.19922C8.50586-3.75977 8.79883-3.45703 9.22852-3.45703C9.67773-3.45703 9.9707-3.75977 9.9707-4.19922L9.9707-6.31836L12.0996-6.31836C12.5391-6.31836 12.8418-6.61133 12.8418-7.04102C12.8418-7.48047 12.5391-7.7832 12.0996-7.7832L9.9707-7.7832L9.9707-9.89258C9.9707-10.3418 9.67773-10.6445 9.22852-10.6445C8.79883-10.6445 8.50586-10.3418 8.50586-9.89258L8.50586-7.7832L6.39648-7.7832C5.94727-7.7832 5.64453-7.48047 5.64453-7.04102C5.64453-6.61133 5.94727-6.31836 6.39648-6.31836Z"/>
  </g>
  <g id="" transform="matrix(1 0 0 1 281.506 1933)">
   <path d="M11.709 2.91016C17.1582 2.91016 21.6699-1.61133 21.6699-7.05078C21.6699-12.5 17.1484-17.0117 11.6992-17.0117C6.25977-17.0117 1.74805-12.5 1.74805-7.05078C1.74805-1.61133 6.26953 2.91016 11.709 2.91016ZM11.709 1.25C7.09961 1.25 3.41797-2.44141 3.41797-7.05078C3.41797-11.6602 7.08984-15.3516 11.6992-15.3516C16.3086-15.3516 20-11.6602 20.0098-7.05078C20.0195-2.44141 16.3184 1.25 11.709 1.25ZM7.98828-6.23047L10.8789-6.23047L10.8789-3.32031C10.8789-2.83203 11.2109-2.5 11.6895-2.5C12.1777-2.5 12.5195-2.83203 12.5195-3.32031L12.5195-6.23047L15.4297-6.23047C15.918-6.23047 16.25-6.5625 16.25-7.04102C16.25-7.5293 15.918-7.87109 15.4297-7.87109L12.5195-7.87109L12.5195-10.7617C12.5195-11.2695 12.1777-11.6016 11.6895-11.6016C11.2109-11.6016 10.8789-11.2598 10.8789-10.7617L10.8789-7.87109L7.98828-7.87109C7.48047-7.87109 7.14844-7.5293 7.14844-7.04102C7.14844-6.5625 7.49023-6.23047 7.98828-6.23047Z"/>
  </g>
  <g id="" transform="matrix(1 0 0 1 304.924 1933)">
   <path d="M14.9707 5.66406C21.9336 5.66406 27.6953-0.0976562 27.6953-7.05078C27.6953-14.0137 21.9238-19.7754 14.9609-19.7754C8.00781-19.7754 2.25586-14.0137 2.25586-7.05078C2.25586-0.0976562 8.01758 5.66406 14.9707 5.66406ZM14.9707 3.84766C8.93555 3.84766 4.08203-1.01562 4.08203-7.05078C4.08203-13.0957 8.92578-17.9492 14.9609-17.9492C21.0059-17.9492 25.8594-13.0957 25.8691-7.05078C25.8789-1.01562 21.0156 3.84766 14.9707 3.84766ZM10.0586-6.14258L14.0625-6.14258L14.0625-2.12891C14.0625-1.5918 14.4336-1.2207 14.9512-1.2207C15.4883-1.2207 15.8594-1.5918 15.8594-2.12891L15.8594-6.14258L19.8828-6.14258C20.4102-6.14258 20.791-6.51367 20.791-7.03125C20.791-7.56836 20.4199-7.94922 19.8828-7.94922L15.8594-7.94922L15.8594-11.9531C15.8594-12.5098 15.4883-12.8809 14.9512-12.8809C14.4336-12.8809 14.0625-12.5 14.0625-11.9531L14.0625-7.94922L10.0586-7.94922C9.50195-7.94922 9.13086-7.56836 9.13086-7.03125C9.13086-6.51367 9.51172-6.14258 10.0586-6.14258Z"/>
  </g>
  <text style="stroke:none;fill:black;font-family:-apple-system,&quot;SF Pro Display&quot;,&quot;SF Pro Text&quot;,Helvetica,sans-serif;font-weight:bold;" transform="matrix(1 0 0 1 263 1953)">Design Variations</text>
  <text style="stroke:none;fill:black;font-family:-apple-system,&quot;SF Pro Display&quot;,&quot;SF Pro Text&quot;,Helvetica,sans-serif;" transform="matrix(1 0 0 1 263 1971)">Symbols are supported in up to nine weights and three scales.</text>
  <text style="stroke:none;fill:black;font-family:-apple-system,&quot;SF Pro Display&quot;,&quot;SF Pro Text&quot;,Helvetica,sans-serif;" transform="matrix(1 0 0 1 263 1989)">For optimal layout with text and other symbols, vertically align</text>
  <text style="stroke:none;fill:black;font-family:-apple-system,&quot;SF Pro Display&quot;,&quot;SF Pro Text&quot;,Helvetica,sans-serif;" transform="matrix(1 0 0 1 263 2007)">symbols with the adjacent text.</text>
  <line id="" style="fill:none;stroke:#00AEEF;stroke-width:0.5;opacity:1.0;" x1="776" x2="776" y1="1919" y2="1933"/>
  <g id="" transform="matrix(1 0 0 1 776 1933)">
   <path d="M3.31055 0.126953C3.82812 0.126953 4.08203-0.0683594 4.26758-0.605469L5.52734-4.0625L11.2891-4.0625L12.5488-0.605469C12.7344-0.0683594 12.9883 0.126953 13.4961 0.126953C14.0137 0.126953 14.3457-0.185547 14.3457-0.673828C14.3457-0.839844 14.3164-0.986328 14.2383-1.20117L9.6582-13.3887C9.43359-13.9941 9.0332-14.2871 8.4082-14.2871C7.80273-14.2871 7.39258-13.9941 7.17773-13.3984L2.59766-1.19141C2.51953-0.976562 2.49023-0.830078 2.49023-0.664062C2.49023-0.175781 2.80273 0.126953 3.31055 0.126953ZM6.00586-5.53711L8.37891-12.1094L8.42773-12.1094L10.8008-5.53711Z"/>
  </g>
  <line id="" style="fill:none;stroke:#00AEEF;stroke-width:0.5;opacity:1.0;" x1="792.836" x2="792.836" y1="1919" y2="1933"/>
  <text style="stroke:none;fill:black;font-family:-apple-system,&quot;SF Pro Display&quot;,&quot;SF Pro Text&quot;,Helvetica,sans-serif;font-weight:bold;" transform="matrix(1 0 0 1 776 1953)">Margins</text>
  <text style="stroke:none;fill:black;font-family:-apple-system,&quot;SF Pro Display&quot;,&quot;SF Pro Text&quot;,Helvetica,sans-serif;" transform="matrix(1 0 0 1 776 1971)">Leading and trailing margins on the left and right side of each symbol</text>
  <text style="stroke:none;fill:black;font-family:-apple-system,&quot;SF Pro Display&quot;,&quot;SF Pro Text&quot;,Helvetica,sans-serif;" transform="matrix(1 0 0 1 776 1989)">can be adjusted by modifying the x-location of the margin guidelines.</text>
  <text style="stroke:none;fill:black;font-family:-apple-system,&quot;SF Pro Display&quot;,&quot;SF Pro Text&quot;,Helvetica,sans-serif;" transform="matrix(1 0 0 1 776 2007)">Modifications are automatically applied proportionally to all</text>
  <text style="stroke:none;fill:black;font-family:-apple-system,&quot;SF Pro Display&quot;,&quot;SF Pro Text&quot;,Helvetica,sans-serif;" transform="matrix(1 0 0 1 776 2025)">scales and weights.</text>
  <g id="" transform="matrix(1 0 0 1 1289 1933)">
   <path d="M2.8418 1.86523L4.54102 3.57422C5.40039 4.44336 6.38672 4.38477 7.31445 3.35938L17.4902-7.85156C17.7539-7.76367 18.0273-7.7832 18.3398-7.8418L19.4043-8.03711L20.0684-7.36328L20.0293-6.80664C19.9902-6.30859 20.1172-5.92773 20.6055-5.44922L21.3672-4.70703C21.8457-4.22852 22.4609-4.19922 22.9297-4.66797L25.8398-7.58789C26.3086-8.05664 26.2891-8.65234 25.8105-9.13086L25.0391-9.89258C24.5605-10.3711 24.1895-10.5273 23.7109-10.4883L23.1348-10.4395L22.4902-11.0742L22.7344-12.1973C22.8613-12.7637 22.7051-13.2031 22.1191-13.7891L19.9219-15.9766C16.582-19.2969 12.1484-19.2188 9.25781-16.3281C8.83789-15.918 8.80859-15.3418 9.04297-14.9512C9.27734-14.5898 9.73633-14.3555 10.3809-14.5215C11.8457-14.8633 13.3691-14.9219 14.7949-13.9844L14.209-12.5293C14.0137-12.0508 13.9844-11.6504 14.1113-11.2891L3.04688-0.898438C2.06055 0.0195312 1.98242 0.996094 2.8418 1.86523ZM10.752-15.957C13.1836-17.7344 16.4746-17.4316 18.7012-15.2051L21.1328-12.793C21.3672-12.5586 21.4062-12.373 21.3379-12.0312L21.0156-10.5469L22.5195-9.0625L23.5059-9.12109C23.7598-9.13086 23.8379-9.11133 24.0332-8.91602L24.6094-8.33984L22.168-5.89844L21.5918-6.47461C21.3965-6.66992 21.3672-6.74805 21.377-7.01172L21.4453-7.98828L19.9512-9.47266L18.4277-9.21875C18.1055-9.15039 17.959-9.17969 17.7148-9.41406L15.7129-11.416C15.459-11.6504 15.4297-11.8164 15.5859-12.1875L16.4648-14.2773C14.9023-15.7324 12.8711-16.3574 10.8398-15.7617C10.6836-15.7227 10.625-15.8496 10.752-15.957ZM5.27344 2.30469L4.10156 1.14258C3.63281 0.683594 3.74023 0.341797 4.14062-0.0195312L14.9512-10.1953L16.416-8.71094L6.42578 2.27539C6.07422 2.67578 5.74219 2.77344 5.27344 2.30469Z"/>
  </g>
  <text style="stroke:none;fill:black;font-family:-apple-system,&quot;SF Pro Display&quot;,&quot;SF Pro Text&quot;,Helvetica,sans-serif;font-weight:bold;" transform="matrix(1 0 0 1 1289 1953)">Exporting</text>
  <text style="stroke:none;fill:black;font-family:-apple-system,&quot;SF Pro Display&quot;,&quot;SF Pro Text&quot;,Helvetica,sans-serif;" transform="matrix(1 0 0 1 1289 1971)">Symbols should be outlined when exporting to ensure the</text>
  <text style="stroke:none;fill:black;font-family:-apple-system,&quot;SF Pro Display&quot;,&quot;SF Pro Text&quot;,Helvetica,sans-serif;" transform="matrix(1 0 0 1 1289 1989)">design is preserved when submitting to Xcode.</text>
  <text id="template-version" style="stroke:none;fill:black;font-family:-apple-system,&quot;SF Pro Display&quot;,&quot;SF Pro Text&quot;,Helvetica,sans-serif;text-anchor:end;" transform="matrix(1 0 0 1 3036 1933)">Template v.2.0</text>
  <text style="stroke:none;fill:black;font-family:-apple-system,&quot;SF Pro Display&quot;,&quot;SF Pro Text&quot;,Helvetica,sans-serif;text-anchor:end;" transform="matrix(1 0 0 1 3036 1951)">Requires Xcode 12 or greater</text>
  <text style="stroke:none;fill:black;font-family:-apple-system,&quot;SF Pro Display&quot;,&quot;SF Pro Text&quot;,Helvetica,sans-serif;text-anchor:end;" transform="matrix(1 0 0 1 3036 1969)">Generated from person.2</text>
  <text style="stroke:none;fill:black;font-family:-apple-system,&quot;SF Pro Display&quot;,&quot;SF Pro Text&quot;,Helvetica,sans-serif;text-anchor:end;" transform="matrix(1 0 0 1 3036 1987)">Typeset at 100 points</text>
  <text style="stroke:none;fill:black;font-family:-apple-system,&quot;SF Pro Display&quot;,&quot;SF Pro Text&quot;,Helvetica,sans-serif;" transform="matrix(1 0 0 1 263 726)">Small</text>
  <text style="stroke:none;fill:black;font-family:-apple-system,&quot;SF Pro Display&quot;,&quot;SF Pro Text&quot;,Helvetica,sans-serif;" transform="matrix(1 0 0 1 263 1156)">Medium</text>
  <text style="stroke:none;fill:black;font-family:-apple-system,&quot;SF Pro Display&quot;,&quot;SF Pro Text&quot;,Helvetica,sans-serif;" transform="matrix(1 0 0 1 263 1586)">Large</text>
 </g>
 <g id="Guides">
  <g id="H-reference" style="fill:#27AAE1;stroke:none;" transform="matrix(1 0 0 1 339 696)">
   <path d="M0.976562 0L3.66211 0L12.9883-24.4629L45.752-24.4629L55.127 0L57.7637 0L30.6152-70.459L28.125-70.459ZM29.3457-67.1387L29.4434-67.1387L44.873-26.709L13.8672-26.709Z"/>
  </g>
  <line id="Baseline-S" style="fill:none;stroke:#27AAE1;opacity:1;stroke-width:0.5;" x1="263" x2="3036" y1="696" y2="696"/>
  <line id="Capline-S" style="fill:none;stroke:#27AAE1;opacity:1;stroke-width:0.5;" x1="263" x2="3036" y1="625.541" y2="625.541"/>
  <g id="H-reference" style="fill:#27AAE1;stroke:none;" transform="matrix(1 0 0 1 339 1126)">
   <path d="M0.976562 0L3.66211 0L12.9883-24.4629L45.752-24.4629L55.127 0L57.7637 0L30.6152-70.459L28.125-70.459ZM29.3457-67.1387L29.4434-67.1387L44.873-26.709L13.8672-26.709Z"/>
  </g>
  <line id="Baseline-M" style="fill:none;stroke:#27AAE1;opacity:1;stroke-width:0.5;" x1="263" x2="3036" y1="1126" y2="1126"/>
  <line id="Capline-M" style="fill:none;stroke:#27AAE1;opacity:1;stroke-width:0.5;" x1="263" x2="3036" y1="1055.54" y2="1055.54"/>
  <g id="H-reference" style="fill:#27AAE1;stroke:none;" transform="matrix(1 0 0 1 339 1556)">
   <path d="M0.976562 0L3.66211 0L12.9883-24.4629L45.752-24.4629L55.127 0L57.7637 0L30.6152-70.459L28.125-70.459ZM29.3457-67.1387L29.4434-67.1387L44.873-26.709L13.8672-26.709Z"/>
  </g>
  <line id="Baseline-L" style="fill:none;stroke:#27AAE1;opacity:1;stroke-width:0.5;" x1="263" x2="3036" y1="1556" y2="1556"/>
  <line id="Capline-L" style="fill:none;stroke:#27AAE1;opacity:1;stroke-width:0.5;" x1="263" x2="3036" y1="1485.54" y2="1485.54"/>
  <line id="left-margin" style="fill:none;stroke:#00AEEF;stroke-width:0.5;opacity:1.0;" x1="1369.4" x2="1369.4" y1="1030.79" y2="1150.12"/>
  <line id="right-margin" style="fill:none;stroke:#00AEEF;stroke-width:0.5;opacity:1.0;" x1="1530.29" x2="1530.29" y1="1030.79" y2="1150.12"/>
 </g>
 <g id="Symbols">
  <g id="Black-L" transform="matrix(1 0 0 1 2826.98 1556)">
   <path d="M140.039-33.3984C156.152-33.3984 168.945-47.2656 168.945-64.5508C168.945-81.3477 155.957-95.1172 140.039-95.1172C124.17-95.1172 111.133-81.2988 111.182-64.502C111.23-47.2168 123.975-33.3984 140.039-33.3984ZM65.625-32.0312C79.6875-32.0312 90.9668-44.2383 90.9668-59.4727C90.9668-74.2188 79.541-86.4258 65.625-86.4258C51.7578-86.4258 40.2344-74.1211 40.2832-59.4238C40.332-44.1406 51.5625-32.0312 65.625-32.0312ZM140.039-49.3652C133.154-49.3652 127.344-55.8105 127.344-64.5508C127.246-72.7051 133.252-79.1992 140.039-79.1992C146.924-79.1992 152.783-72.7539 152.783-64.5508C152.783-55.9082 147.021-49.3652 140.039-49.3652ZM65.625-47.6562C60.4004-47.6562 55.9082-52.7344 55.9082-59.4238C55.8594-65.6738 60.498-70.752 65.625-70.752C70.8008-70.752 75.3418-65.6738 75.3418-59.4727C75.3418-52.7344 70.9473-47.6562 65.625-47.6562ZM101.953 26.5137L178.174 26.5137C190.527 26.5137 196.777 22.1191 196.777 13.0371C196.777-6.64062 172.705-27.4414 140.039-27.4414C107.373-27.4414 83.3496-6.64062 83.3496 13.0371C83.3496 22.1191 89.5996 26.5137 101.953 26.5137ZM32.2754 26.5625L79.1016 26.5625C74.2188 23.4863 71.8262 16.3574 72.4609 10.8887L34.4727 10.8887C33.7402 10.8887 33.5449 10.4004 33.5449 9.96094C33.5449-0.585938 47.7051-11.8164 65.625-11.8164C69.7266-11.8164 76.3672-10.6445 79.7363-9.42383C82.2266-14.2578 85.9375-18.3105 91.4551-21.582C83.9844-25.0977 73.4863-27.3926 65.625-27.3926C38.3789-27.3926 16.0645-8.78906 16.0645 12.3047C16.0645 21.4355 21.4355 26.5625 32.2754 26.5625ZM102.832 10.5469C102.051 10.5469 101.855 10.1074 101.855 9.52148C101.855 2.49023 115.967-11.5234 140.039-11.5234C164.16-11.5234 178.271 2.49023 178.271 9.52148C178.271 10.1074 178.027 10.5469 177.295 10.5469Z"/>
  </g>
  <g id="Heavy-L" transform="matrix(1 0 0 1 2531 1556)">
   <path d="M139.16-33.7891C154.932-33.7891 167.529-47.4609 167.529-64.4531C167.529-81.0547 154.785-94.5312 139.16-94.5312C123.535-94.5312 110.693-80.957 110.791-64.4043C110.84-47.4121 123.389-33.7891 139.16-33.7891ZM65.1367-32.373C78.9551-32.373 89.9902-44.4336 89.9902-59.4238C89.9902-73.9258 78.8086-85.8887 65.1367-85.8887C51.5137-85.8887 40.2344-73.7793 40.2832-59.375C40.332-44.3359 51.3672-32.373 65.1367-32.373ZM139.16-47.9004C131.543-47.9004 125.146-54.9805 125.146-64.4531C125.098-73.3887 131.592-80.4688 139.16-80.4688C146.729-80.4688 153.125-73.4375 153.125-64.4531C153.125-55.0781 146.826-47.9004 139.16-47.9004ZM65.1367-46.2402C59.1797-46.2402 54.1504-51.9531 54.1504-59.375C54.1016-66.3086 59.2285-72.0215 65.1367-72.0215C71.0938-72.0215 76.1719-66.3574 76.1719-59.4238C76.1719-51.9531 71.1914-46.2402 65.1367-46.2402ZM31.25 25.8789L79.1016 25.8789C74.7559 23.1934 72.4609 16.9922 72.9492 12.0117L32.666 12.0117C31.6406 12.0117 31.2988 11.4746 31.2988 10.6934C31.2988-1.2207 46.4355-13.3301 65.1367-13.3301C70.3125-13.3301 77.2461-11.8652 81.3477-9.96094C83.6914-14.1602 87.0117-17.6758 91.748-20.6055C84.1309-24.6582 73.7305-27.0996 65.1367-27.0996C37.9883-27.0996 16.0645-8.25195 16.0645 12.5977C16.0645 21.1914 21.0938 25.8789 31.25 25.8789ZM100.537 25.8301L177.734 25.8301C189.502 25.8301 195.312 21.7773 195.312 13.2812C195.312-5.66406 172.07-27.0996 139.111-27.0996C106.201-27.0996 82.9102-5.66406 82.9102 13.2812C82.9102 21.7773 88.7695 25.8301 100.537 25.8301ZM100.635 11.7188C99.4629 11.7188 99.0723 11.2305 99.0723 10.4004C99.0723 2.34375 113.77-12.9883 139.111-12.9883C164.453-12.9883 179.15 2.34375 179.15 10.4004C179.15 11.2305 178.76 11.7188 177.637 11.7188Z"/>
  </g>
  <g id="Bold-L" transform="matrix(1 0 0 1 2235.07 1556)">
   <path d="M138.135-34.1797C153.564-34.1797 165.918-47.6562 165.918-64.3555C165.918-80.7129 153.467-93.8965 138.135-93.8965C122.803-93.8965 110.254-80.5664 110.303-64.3066C110.352-47.6074 122.705-34.1797 138.135-34.1797ZM64.5996-32.8125C78.0762-32.8125 88.916-44.5801 88.916-59.3262C88.916-73.584 77.9785-85.2539 64.5996-85.2539C51.2695-85.2539 40.2832-73.4375 40.332-59.2773C40.3809-44.5312 51.1719-32.8125 64.5996-32.8125ZM138.135-46.2402C129.736-46.2402 122.705-54.0527 122.705-64.3066C122.656-74.1211 129.736-81.8359 138.135-81.8359C146.533-81.8359 153.516-74.2188 153.516-64.3555C153.516-54.1504 146.582-46.2402 138.135-46.2402ZM64.5996-44.6289C57.8613-44.6289 52.1973-51.0254 52.1973-59.2773C52.1484-67.041 57.8613-73.4375 64.5996-73.4375C71.4355-73.4375 77.0996-67.1387 77.0996-59.3262C77.0996-51.0254 71.4355-44.6289 64.5996-44.6289ZM30.1758 25.0977L79.1016 25.0977C75.3418 22.8516 73.0957 17.6758 73.4863 13.2812L30.6641 13.2812C29.3457 13.2812 28.8574 12.6953 28.8574 11.5723C28.8574-1.9043 45.0195-14.9902 64.5996-14.9902C70.9961-14.9902 78.2715-13.2324 83.1543-10.498C85.3027-14.0137 88.1348-16.9434 92.0898-19.4336C84.2285-24.1211 73.9258-26.7578 64.5996-26.7578C37.5488-26.7578 16.1133-7.71484 16.1133 12.9883C16.1133 20.8984 20.752 25.0977 30.1758 25.0977ZM98.9258 25.0977L177.246 25.0977C188.33 25.0977 193.701 21.3867 193.701 13.5742C193.701-4.49219 171.338-26.709 138.086-26.709C104.834-26.709 82.4707-4.49219 82.4707 13.5742C82.4707 21.3867 87.8906 25.0977 98.9258 25.0977ZM98.1445 13.0371C96.582 13.0371 96.0449 12.5 96.0449 11.3281C96.0449 2.14844 111.377-14.6484 138.086-14.6484C164.795-14.6484 180.127 2.14844 180.127 11.3281C180.127 12.5 179.59 13.0371 178.027 13.0371Z"/>
  </g>
  <g id="Semibold-L" transform="matrix(1 0 0 1 1938.92 1556)">
   <path d="M137.402-34.4727C152.637-34.4727 164.844-47.8027 164.844-64.3066C164.844-80.4688 152.539-93.457 137.402-93.457C122.314-93.457 109.912-80.3223 110.01-64.209C110.059-47.7539 122.217-34.4727 137.402-34.4727ZM64.2578-33.0566C77.4902-33.0566 88.1836-44.7266 88.1836-59.2773C88.1836-73.3887 77.4414-84.8633 64.2578-84.8633C51.123-84.8633 40.2832-73.1934 40.332-59.1797C40.4297-44.6777 51.0254-33.0566 64.2578-33.0566ZM137.402-45.1172C128.467-45.1172 121.045-53.418 121.045-64.2578C120.947-74.6094 128.467-82.8125 137.402-82.8125C146.387-82.8125 153.809-74.7559 153.809-64.3066C153.809-53.5156 146.387-45.1172 137.402-45.1172ZM64.2578-43.5547C56.9336-43.5547 50.8301-50.4395 50.8301-59.1797C50.7812-67.5293 56.9336-74.3652 64.2578-74.3652C71.6309-74.3652 77.7344-67.6758 77.7344-59.2773C77.7344-50.4395 71.6309-43.5547 64.2578-43.5547ZM29.3945 24.5605L79.1016 24.5605C75.7812 22.6074 73.584 18.1641 73.877 14.1602L29.2969 14.1602C27.7344 14.1602 27.1484 13.5254 27.1484 12.1582C27.1484-2.39258 44.043-16.1133 64.209-16.1133C71.4355-16.1133 78.9551-14.209 84.4238-10.9375C86.4258-13.916 88.9648-16.4551 92.334-18.6523C84.3262-23.7305 74.1211-26.5137 64.209-26.5137C37.2559-26.5137 16.1133-7.32422 16.1133 13.2324C16.1133 20.7031 20.5078 24.5605 29.3945 24.5605ZM97.8027 24.5605L176.953 24.5605C187.5 24.5605 192.627 21.1426 192.627 13.7695C192.627-3.71094 170.85-26.416 137.354-26.416C103.906-26.416 82.1289-3.71094 82.1289 13.7695C82.1289 21.1426 87.2559 24.5605 97.8027 24.5605ZM96.4355 13.916C94.5801 13.916 93.8965 13.3789 93.8965 12.0117C93.8965 2.00195 109.668-15.8203 137.354-15.8203C165.039-15.8203 180.859 2.00195 180.859 12.0117C180.859 13.3789 180.176 13.916 178.271 13.916Z"/>
  </g>
  <g id="Medium-L" transform="matrix(1 0 0 1 1642.62 1556)">
   <path d="M136.865-34.7168C151.904-34.7168 164.014-47.9004 164.014-64.2578C164.014-80.2734 151.855-93.0664 136.865-93.0664C121.973-93.0664 109.717-80.127 109.766-64.1602C109.814-47.8516 121.875-34.7168 136.865-34.7168ZM63.9648-33.3008C77.0508-33.3008 87.5977-44.8242 87.5977-59.2285C87.5977-73.1934 77.0508-84.5215 63.9648-84.5215C51.0254-84.5215 40.2832-72.998 40.3809-59.1309C40.4297-44.7754 50.9277-33.3008 63.9648-33.3008ZM136.865-44.2383C127.539-44.2383 119.775-52.9297 119.775-64.1602C119.678-75 127.49-83.5449 136.865-83.5449C146.289-83.5449 154.004-75.1465 154.004-64.2578C154.004-53.0762 146.289-44.2383 136.865-44.2383ZM63.9648-42.7246C56.2012-42.7246 49.8047-49.9512 49.8047-59.1309C49.7559-67.9199 56.2012-75.0977 63.9648-75.0977C71.8262-75.0977 78.2227-68.0664 78.2227-59.2285C78.2227-49.9512 71.7773-42.7246 63.9648-42.7246ZM28.8086 24.1699L79.1016 24.1699C76.0742 22.4121 73.9258 18.5059 74.1699 14.7949L28.2227 14.7949C26.5137 14.7949 25.8789 14.1602 25.8789 12.5977C25.8789-2.73438 43.3105-16.9922 63.916-16.9922C71.8262-16.9922 79.4434-14.9414 85.3516-11.2305C87.2559-13.8184 89.5508-16.1133 92.4805-18.0664C84.375-23.4863 74.2188-26.3672 63.916-26.3672C37.0117-26.3672 16.1133-7.03125 16.1133 13.3789C16.1133 20.5566 20.3125 24.1699 28.8086 24.1699ZM96.9727 24.1699L176.709 24.1699C186.865 24.1699 191.797 20.8984 191.797 13.916C191.797-3.125 170.459-26.2207 136.816-26.2207C103.223-26.2207 81.8848-3.125 81.8848 13.916C81.8848 20.8984 86.7676 24.1699 96.9727 24.1699ZM95.166 14.5996C93.0664 14.5996 92.2852 14.0137 92.2852 12.5C92.2852 1.9043 108.398-16.6992 136.816-16.6992C165.234-16.6992 181.348 1.9043 181.348 12.5C181.348 14.0137 180.615 14.5996 178.467 14.5996Z"/>
  </g>
  <g id="Regular-L" transform="matrix(1 0 0 1 1346.45 1556)">
   <path d="M136.182-34.9609C150.977-34.9609 162.939-48.0469 162.939-64.209C162.939-80.0293 150.977-92.627 136.182-92.627C121.484-92.627 109.375-79.8828 109.424-64.1113C109.521-47.998 121.387-34.9609 136.182-34.9609ZM136.182-43.1641C126.318-43.1641 118.115-52.3438 118.115-64.1113C118.018-75.5371 126.221-84.4727 136.182-84.4727C146.143-84.4727 154.248-75.6348 154.248-64.209C154.248-52.4414 146.094-43.1641 136.182-43.1641ZM63.623-33.5449C76.4648-33.5449 86.8652-44.9707 86.8652-59.1797C86.8652-72.9492 76.4648-84.1309 63.623-84.1309C50.8301-84.1309 40.332-72.8027 40.3809-59.082C40.4297-44.9219 50.7812-33.5449 63.623-33.5449ZM63.623-41.6504C55.2734-41.6504 48.4375-49.3652 48.4375-59.082C48.4375-68.457 55.2734-76.0742 63.623-76.0742C72.0215-76.0742 78.8574-68.5547 78.8574-59.1797C78.8574-49.3652 71.9727-41.6504 63.623-41.6504ZM28.0762 23.6328L79.1016 23.6328C76.4648 22.2168 74.4141 18.9941 74.5605 15.6738L26.8555 15.6738C24.9512 15.6738 24.1699 14.9902 24.1699 13.1836C24.1699-3.22266 42.334-18.1152 63.5254-18.1152C72.2656-18.1152 80.127-15.8691 86.6211-11.6211C88.3301-13.7207 90.332-15.5762 92.7246-17.334C84.4727-23.0957 74.3652-26.123 63.5254-26.123C36.7188-26.123 16.1133-6.68945 16.1133 13.623C16.1133 20.3613 20.1172 23.6328 28.0762 23.6328ZM95.8496 23.6328L176.367 23.6328C186.084 23.6328 190.674 20.6543 190.674 14.0625C190.674-2.34375 169.922-25.9766 136.133-25.9766C102.295-25.9766 81.543-2.34375 81.543 14.0625C81.543 20.6543 86.1328 23.6328 95.8496 23.6328ZM93.5059 15.4785C91.0645 15.4785 90.1855 14.8926 90.1855 13.1348C90.1855 1.75781 106.738-17.8223 136.133-17.8223C165.479-17.8223 182.031 1.75781 182.031 13.1348C182.031 14.8926 181.152 15.4785 178.76 15.4785Z"/>
  </g>
  <g id="Light-L" transform="matrix(1 0 0 1 1050.33 1556)">
   <path d="M135.645-34.9121C150.244-34.9121 161.768-47.6074 161.768-63.623C161.768-79.1016 150.049-91.6016 135.645-91.6016C121.289-91.6016 109.473-78.9551 109.57-63.5254C109.668-47.5586 121.094-34.9121 135.645-34.9121ZM135.645-41.2109C124.854-41.2109 116.211-50.9277 116.211-63.5254C116.113-75.5859 124.951-85.3027 135.645-85.3027C146.387-85.3027 155.127-75.7324 155.127-63.623C155.127-50.9766 146.484-41.2109 135.645-41.2109ZM63.0859-33.4961C75.7812-33.4961 85.8398-44.5312 85.8398-58.6426C85.8398-72.1191 75.6348-83.1543 63.0859-83.1543C50.6348-83.1543 40.332-71.9727 40.4297-58.5938C40.5273-44.5312 50.4395-33.4961 63.0859-33.4961ZM63.0859-39.7461C53.9551-39.7461 46.6797-47.9492 46.6797-58.5938C46.6797-68.6035 54.0527-76.9043 63.0859-76.9043C72.2168-76.9043 79.6387-68.7012 79.6387-58.6426C79.6387-47.9492 72.2656-39.7461 63.0859-39.7461ZM26.9043 22.9492L80.0293 22.9492C77.9785 21.875 76.2207 19.4336 76.0254 16.7969L26.1719 16.7969C23.4375 16.7969 22.3633 15.8203 22.3633 13.3301C22.3633-4.15039 41.0156-19.5312 62.9883-19.5312C72.8516-19.5312 81.7383-16.7969 88.7207-11.5723C90.0879-13.1348 91.6504-14.5508 93.4082-15.918C84.9609-22.3145 74.4629-25.6836 62.9883-25.6836C35.6445-25.6836 16.1133-5.85938 16.1133 13.623C16.1133 19.9219 19.6777 22.9492 26.9043 22.9492ZM94.3359 22.9492L176.758 22.9492C185.4 22.9492 189.502 20.166 189.502 14.0625C189.502-2.29492 168.896-25.4883 135.547-25.4883C102.246-25.4883 81.6406-2.29492 81.6406 14.0625C81.6406 20.166 85.7422 22.9492 94.3359 22.9492ZM92.8711 16.6504C89.4043 16.6504 88.2812 15.8203 88.2812 13.4766C88.2812 0.732422 105.566-19.1895 135.547-19.1895C165.576-19.1895 182.861 0.732422 182.861 13.4766C182.861 15.8203 181.738 16.6504 178.271 16.6504Z"/>
  </g>
  <g id="Thin-L" transform="matrix(1 0 0 1 754.42 1556)">
   <path d="M134.961-34.8145C149.219-34.8145 160.205-47.0215 160.205-62.8418C160.205-77.8809 148.877-90.2344 134.961-90.2344C121.045-90.2344 109.57-77.7832 109.766-62.793C109.912-47.0215 120.752-34.8145 134.961-34.8145ZM134.961-38.6719C122.998-38.6719 113.672-49.1211 113.672-62.793C113.525-75.6836 123.193-86.377 134.961-86.377C146.68-86.377 156.299-75.7812 156.299-62.8418C156.299-49.1211 146.973-38.6719 134.961-38.6719ZM62.4512-33.4473C74.9023-33.4473 84.5215-43.9941 84.5215-57.9102C84.5215-71.0449 74.5605-81.8359 62.4512-81.8359C50.293-81.8359 40.332-70.9473 40.4785-57.9102C40.625-43.9941 50-33.4473 62.4512-33.4473ZM62.4512-37.3047C52.1973-37.3047 44.3359-46.1426 44.3359-57.9102C44.3359-68.8477 52.3926-78.0273 62.4512-78.0273C72.4121-78.0273 80.6641-68.8965 80.6641-57.9102C80.6641-46.1426 72.7051-37.3047 62.4512-37.3047ZM25.3906 22.0703L81.2988 22.0703C79.9805 21.3867 78.6133 19.9707 77.9785 18.3105L25.293 18.3105C21.3867 18.3105 19.9707 16.9434 19.9707 13.4766C19.9707-5.37109 39.2578-21.3379 62.3047-21.3379C73.6328-21.3379 83.8379-17.9688 91.4551-11.4746C92.3828-12.4023 93.3594-13.1836 94.3359-14.0625C85.6445-21.2891 74.5605-25.1465 62.3047-25.1465C34.1797-25.1465 16.1133-4.83398 16.1133 13.5742C16.1133 19.3359 19.1406 22.0703 25.3906 22.0703ZM92.3828 22.0703L177.295 22.0703C184.473 22.0703 187.891 19.5801 187.891 14.0137C187.891-2.24609 167.48-24.9023 134.814-24.9023C102.148-24.9023 81.7871-2.24609 81.7871 14.0137C81.7871 19.5801 85.1562 22.0703 92.3828 22.0703ZM92.0898 18.2129C87.207 18.2129 85.6934 17.0898 85.6934 13.916C85.6934-0.634766 104.004-21.0449 134.814-21.0449C165.674-21.0449 183.984-0.634766 183.984 13.916C183.984 17.0898 182.471 18.2129 177.588 18.2129Z"/>
  </g>
  <g id="Ultralight-L" transform="matrix(1 0 0 1 458.124 1556)">
   <path d="M134.619-34.7656C148.682-34.7656 159.424-46.7285 159.424-62.4023C159.424-77.2461 148.242-89.5508 134.619-89.5508C120.898-89.5508 109.668-77.1973 109.814-62.4512C110.01-46.7285 120.557-34.7656 134.619-34.7656ZM134.619-37.3535C122.021-37.3535 112.402-48.1445 112.402-62.4512C112.207-75.7324 122.314-86.9141 134.619-86.9141C146.875-86.9141 156.885-75.8301 156.885-62.4023C156.885-48.1445 147.217-37.3535 134.619-37.3535ZM62.1094-33.3984C74.4141-33.3984 83.8379-43.75 83.8379-57.5195C83.8379-70.459 73.9746-81.2012 62.1094-81.2012C50.1465-81.2012 40.332-70.4102 40.4785-57.5195C40.6738-43.75 49.8047-33.3984 62.1094-33.3984ZM62.1094-36.0352C51.3184-36.0352 43.1152-45.2148 43.1152-57.5195C43.1152-68.9453 51.5625-78.5645 62.1094-78.5645C72.5586-78.5645 81.2012-68.9941 81.2012-57.5195C81.2012-45.2148 72.9004-36.0352 62.1094-36.0352ZM24.5605 21.582L81.9824 21.582C81.0059 21.1426 79.834 20.2637 79.0039 19.043L24.8047 19.043C20.3613 19.043 18.75 17.5293 18.75 13.5742C18.75-5.95703 38.3789-22.3145 61.9141-22.3145C74.0723-22.3145 84.9121-18.6035 92.8711-11.4258C93.5547-12.0117 94.2383-12.5 94.8242-13.0859C85.9863-20.8008 74.6094-24.8535 61.9141-24.8535C33.4473-24.8535 16.1133-4.29688 16.1133 13.5254C16.1133 19.043 18.8965 21.582 24.5605 21.582ZM91.3574 21.582L177.539 21.582C184.033 21.582 187.061 19.2871 187.061 14.0137C187.061-2.19727 166.797-24.5605 134.473-24.5605C102.148-24.5605 81.8359-2.19727 81.8359 14.0137C81.8359 19.2871 84.8633 21.582 91.3574 21.582ZM91.6504 18.9941C86.084 18.9941 84.375 17.7246 84.375 14.1602C84.375-1.36719 103.223-21.9727 134.473-21.9727C165.723-21.9727 184.521-1.36719 184.521 14.1602C184.521 17.7246 182.812 18.9941 177.246 18.9941Z"/>
  </g>
  <g id="Black-M" transform="matrix(1 0 0 1 2850.27 1126)">
   <path d="M109.521-33.3008C122.266-33.3008 132.275-44.0918 132.275-57.7637C132.275-70.8984 122.021-81.8848 109.521-81.8848C97.0703-81.8848 86.7676-70.8984 86.8164-57.7637C86.8652-44.0918 96.7773-33.3008 109.521-33.3008ZM51.2695-32.2266C62.4512-32.2266 71.2891-41.748 71.2891-53.8086C71.2891-65.4297 62.1582-75.0977 51.2695-75.0977C40.2832-75.0977 31.1523-65.3809 31.2012-53.8086C31.2988-41.6992 40.0879-32.2266 51.2695-32.2266ZM109.521-47.1191C104.639-47.1191 100.635-51.5625 100.635-57.8125C100.586-63.4277 104.834-68.0664 109.521-68.0664C114.307-68.0664 118.457-63.4277 118.457-57.7637C118.457-51.6113 114.502-47.1191 109.521-47.1191ZM51.2695-45.8008C47.7539-45.8008 44.7754-49.1211 44.7754-53.8086C44.7266-58.0078 47.8516-61.5234 51.2695-61.5234C54.541-61.5234 57.7148-58.0078 57.7148-53.8086C57.7148-49.1211 54.834-45.8008 51.2695-45.8008ZM80.1758 13.1348L138.867 13.1348C148.73 13.1348 153.809 9.42383 153.809 1.85547C153.809-14.4531 134.229-29.4434 109.521-29.4434C84.8633-29.4434 65.2832-14.4531 65.2832 1.85547C65.2832 9.42383 70.3125 13.1348 80.1758 13.1348ZM25.7324 13.2324L61.8652 13.2324C57.666 10.498 55.8594 4.15039 56.2988-0.439453L28.7598-0.439453C28.125-0.439453 28.0273-0.878906 28.0273-1.17188C28.0273-8.05664 37.9395-15.8203 51.2695-15.8203C53.5645-15.8203 58.8379-14.9902 60.7422-14.502C62.7441-18.8477 65.918-22.4609 70.8496-25.293C65.2344-27.6367 56.7383-29.3457 51.2695-29.3457C29.7363-29.3457 12.4512-14.9414 12.4512 1.17188C12.4512 8.78906 16.8457 13.2324 25.7324 13.2324ZM82.373-0.683594C81.7383-0.683594 81.6406-1.12305 81.6406-1.51367C81.6406-6.29883 92.1875-15.5762 109.521-15.5762C126.855-15.5762 137.451-6.29883 137.451-1.51367C137.451-1.12305 137.305-0.683594 136.719-0.683594Z"/>
  </g>
  <g id="Heavy-M" transform="matrix(1 0 0 1 2554.19 1126)">
   <path d="M108.643-33.6914C121.143-33.6914 131.006-44.3848 131.006-57.8125C131.006-70.8008 120.947-81.543 108.643-81.543C96.3867-81.543 86.2793-70.752 86.3281-57.7637C86.377-44.3848 96.1914-33.6914 108.643-33.6914ZM50.8301-32.6172C61.7676-32.6172 70.459-42.041 70.459-53.9062C70.459-65.332 61.5723-74.7559 50.8301-74.7559C40.0879-74.7559 31.1523-65.2344 31.2012-53.8574C31.25-41.9922 39.9414-32.6172 50.8301-32.6172ZM108.643-45.9961C103.223-45.9961 98.7305-51.0254 98.7305-57.8125C98.6816-64.1113 103.369-69.2383 108.643-69.2383C114.014-69.2383 118.555-64.1602 118.555-57.8125C118.555-51.0742 114.111-45.9961 108.643-45.9961ZM50.8301-44.7266C46.7773-44.7266 43.3105-48.6328 43.3105-53.8574C43.2617-58.6914 46.8262-62.6953 50.8301-62.6953C54.834-62.6953 58.3984-58.6914 58.3984-53.9062C58.3984-48.6328 54.9805-44.7266 50.8301-44.7266ZM79.0039 12.5977L138.281 12.5977C147.754 12.5977 152.539 9.17969 152.539 2.14844C152.539-13.3301 133.74-29.1504 108.643-29.1504C83.5449-29.1504 64.7461-13.3301 64.7461 2.14844C64.7461 9.17969 69.5312 12.5977 79.0039 12.5977ZM24.9512 12.6465L61.5723 12.6465C57.8125 10.2539 56.0059 4.6875 56.4453 0.537109L26.9531 0.537109C26.2695 0.537109 26.0742 0.0976562 26.0742-0.390625C26.0742-8.49609 36.9141-17.0898 50.8301-17.0898C54.0527-17.0898 59.4238-16.1133 61.9629-15.0879C63.8184-18.8477 66.6992-22.0215 70.9961-24.5605C65.2344-27.2949 56.9336-29.1504 50.8301-29.1504C29.541-29.1504 12.4512-14.6484 12.4512 1.51367C12.4512 8.64258 16.6016 12.6465 24.9512 12.6465ZM80.127 0.292969C79.3457 0.292969 79.1016-0.146484 79.1016-0.634766C79.1016-6.25 90.1367-16.8457 108.643-16.8457C127.197-16.8457 138.184-6.25 138.184-0.634766C138.184-0.146484 137.988 0.292969 137.207 0.292969Z"/>
  </g>
  <g id="Bold-M" transform="matrix(1 0 0 1 2258.19 1126)">
   <path d="M107.666-34.1797C119.824-34.1797 129.59-44.7266 129.59-57.8613C129.59-70.7031 119.727-81.1035 107.666-81.1035C95.6055-81.1035 85.6934-70.6055 85.7422-57.8125C85.791-44.7266 95.5078-34.1797 107.666-34.1797ZM50.3906-33.1055C61.0352-33.1055 69.5801-42.3828 69.5801-53.9551C69.5801-65.1855 60.9375-74.4141 50.3906-74.4141C39.8926-74.4141 31.2012-65.0879 31.2012-53.9062C31.25-42.334 39.7949-33.1055 50.3906-33.1055ZM107.666-44.7754C101.66-44.7754 96.582-50.3906 96.582-57.8613C96.5332-64.9414 101.709-70.5078 107.666-70.5078C113.672-70.5078 118.75-64.9902 118.75-57.8613C118.75-50.4883 113.721-44.7754 107.666-44.7754ZM50.3906-43.5059C45.6543-43.5059 41.6504-48.0469 41.6504-53.9062C41.6016-59.4238 45.7031-63.9648 50.3906-63.9648C55.127-63.9648 59.1797-59.4727 59.1797-53.9551C59.1797-48.0469 55.1758-43.5059 50.3906-43.5059ZM24.0723 12.0117L61.2793 12.0117C58.0078 10.0098 56.2012 5.37109 56.5918 1.5625L24.9512 1.5625C24.1699 1.5625 23.877 1.17188 23.877 0.537109C23.877-8.98438 35.7422-18.5059 50.3906-18.5059C54.5898-18.5059 60.0098-17.334 63.3301-15.7227C65.0879-18.8965 67.5781-21.5332 71.1426-23.7305C65.1855-26.9531 57.1777-28.8574 50.3906-28.8574C29.3945-28.8574 12.4512-14.2578 12.4512 1.9043C12.4512 8.44727 16.3086 12.0117 24.0723 12.0117ZM77.6367 11.9629L137.646 11.9629C146.631 11.9629 151.123 8.88672 151.123 2.44141C151.123-12.1094 133.252-28.8574 107.666-28.8574C82.0801-28.8574 64.1602-12.1094 64.1602 2.44141C64.1602 8.88672 68.6523 11.9629 77.6367 11.9629ZM77.5879 1.36719C76.6113 1.36719 76.3184 0.976562 76.3184 0.292969C76.3184-6.15234 87.793-18.2617 107.666-18.2617C127.539-18.2617 139.014-6.15234 139.014 0.292969C139.014 0.976562 138.672 1.36719 137.744 1.36719Z"/>
  </g>
  <g id="Semibold-M" transform="matrix(1 0 0 1 1961.97 1126)">
   <path d="M106.982-34.5215C118.945-34.5215 128.613-44.9707 128.613-57.9102C128.613-70.6055 118.896-80.8105 106.982-80.8105C95.1172-80.8105 85.3516-70.5078 85.3516-57.8613C85.4004-44.9707 95.0195-34.5215 106.982-34.5215ZM50.0977-33.3984C60.498-33.3984 68.9453-42.627 68.9453-54.0039C68.9453-65.0879 60.498-74.1211 50.0977-74.1211C39.7461-74.1211 31.2012-64.9902 31.25-53.9551C31.25-42.5781 39.6973-33.3984 50.0977-33.3984ZM106.982-43.9453C100.537-43.9453 95.1172-50 95.1172-57.8613C95.0684-65.4785 100.537-71.3867 106.982-71.3867C113.477-71.3867 118.848-65.5273 118.848-57.9102C118.848-50.0977 113.477-43.9453 106.982-43.9453ZM50.0977-42.6758C44.9219-42.6758 40.5273-47.6562 40.5273-53.9551C40.4785-59.9609 44.9219-64.8438 50.0977-64.8438C55.3223-64.8438 59.7168-60.0586 59.7168-54.0039C59.7168-47.6562 55.3223-42.6758 50.0977-42.6758ZM23.4375 11.5723L61.084 11.5723C58.1543 9.81445 56.3477 5.81055 56.6895 2.29492L23.584 2.29492C22.7051 2.29492 22.3633 1.9043 22.3633 1.12305C22.3633-9.32617 34.9609-19.4824 50.0488-19.4824C54.9805-19.4824 60.4492-18.2129 64.2578-16.1621C65.9668-18.8965 68.1641-21.1914 71.2402-23.1445C65.1855-26.709 57.3242-28.7109 50.0488-28.7109C29.248-28.7109 12.4512-14.0137 12.4512 2.19727C12.4512 8.34961 16.1133 11.5723 23.4375 11.5723ZM76.709 11.5234L137.207 11.5234C145.898 11.5234 150.146 8.69141 150.146 2.63672C150.146-11.2793 132.91-28.6621 106.982-28.6621C81.0547-28.6621 63.7695-11.2793 63.7695 2.63672C63.7695 8.69141 68.0176 11.5234 76.709 11.5234ZM75.8301 2.09961C74.7559 2.09961 74.3652 1.75781 74.3652 0.927734C74.3652-6.10352 86.1816-19.2383 106.982-19.2383C127.734-19.2383 139.551-6.10352 139.551 0.927734C139.551 1.75781 139.16 2.09961 138.135 2.09961Z"/>
  </g>
  <g id="Medium-M" transform="matrix(1 0 0 1 1665.62 1126)">
   <path d="M106.445-34.7656C118.262-34.7656 127.832-45.166 127.832-57.959C127.832-70.5566 118.311-80.6152 106.445-80.6152C94.7266-80.6152 85.0586-70.4102 85.0586-57.8613C85.1074-45.1172 94.6777-34.7656 106.445-34.7656ZM49.8535-33.6426C60.1562-33.6426 68.457-42.7734 68.457-54.0527C68.457-65.0391 60.1562-73.9258 49.8535-73.9258C39.6484-73.9258 31.2012-64.8926 31.25-54.0039C31.25-42.7246 39.5996-33.6426 49.8535-33.6426ZM106.445-43.3105C99.707-43.3105 93.9941-49.6582 93.9941-57.9102C93.9941-65.8691 99.6582-72.0703 106.445-72.0703C113.281-72.0703 118.896-65.9668 118.896-57.959C118.896-49.7559 113.232-43.3105 106.445-43.3105ZM49.8535-42.0898C44.3359-42.0898 39.6484-47.3633 39.6484-54.0039C39.6484-60.3516 44.2871-65.5273 49.8535-65.5273C55.5176-65.5273 60.1074-60.4492 60.1074-54.0527C60.1074-47.3633 55.4199-42.0898 49.8535-42.0898ZM22.998 11.2305L60.9375 11.2305C58.252 9.66797 56.4453 6.10352 56.7871 2.88086L22.5586 2.88086C21.6309 2.88086 21.2402 2.44141 21.2402 1.61133C21.2402-9.57031 34.3262-20.2148 49.8047-20.2148C55.2734-20.2148 60.7422-18.8477 64.9414-16.5039C66.6016-18.8965 68.6523-20.9473 71.3379-22.7051C65.1367-26.5137 57.4219-28.5645 49.8047-28.5645C29.1504-28.5645 12.4512-13.8184 12.4512 2.39258C12.4512 8.25195 15.9668 11.2305 22.998 11.2305ZM76.0254 11.2305L136.865 11.2305C145.312 11.2305 149.414 8.54492 149.414 2.7832C149.414-10.6445 132.617-28.5156 106.445-28.5156C80.2734-28.5156 63.4766-10.6445 63.4766 2.7832C63.4766 8.54492 67.5781 11.2305 76.0254 11.2305ZM74.4629 2.68555C73.3398 2.68555 72.9004 2.29492 72.9004 1.41602C72.9004-6.05469 84.9609-19.9707 106.445-19.9707C127.93-19.9707 139.99-6.05469 139.99 1.41602C139.99 2.29492 139.551 2.68555 138.379 2.68555Z"/>
  </g>
  <g id="Regular-M" transform="matrix(1 0 0 1 1369.4 1126)">
   <path d="M105.811-35.0586C117.383-35.0586 126.904-45.4102 126.904-58.0078C126.904-70.459 117.48-80.3223 105.811-80.3223C94.1895-80.3223 84.668-70.3125 84.7168-57.9102C84.7168-45.3613 94.1895-35.0586 105.811-35.0586ZM49.5605-33.9844C59.6191-33.9844 67.8711-43.0176 67.8711-54.1016C67.8711-64.9414 59.7168-73.6816 49.5605-73.6816C39.502-73.6816 31.2012-64.7949 31.25-54.0039C31.25-42.9688 39.502-33.9844 49.5605-33.9844ZM105.811-42.4316C98.6328-42.4316 92.5781-49.2676 92.5781-57.9102C92.5293-66.4062 98.5352-72.9492 105.811-72.9492C113.086-72.9492 119.043-66.5039 119.043-58.0078C119.043-49.3652 112.988-42.4316 105.811-42.4316ZM49.5605-41.2598C43.5547-41.2598 38.5254-46.9727 38.5254-54.0039C38.5254-60.8887 43.5059-66.4062 49.5605-66.4062C55.7129-66.4062 60.6445-60.9863 60.6445-54.1016C60.6445-46.9727 55.5664-41.2598 49.5605-41.2598ZM22.3633 10.791L60.6934 10.791C58.3496 9.47266 56.5918 6.54297 56.9336 3.56445L21.1914 3.56445C20.166 3.56445 19.7266 3.17383 19.7266 2.24609C19.7266-9.86328 33.5449-21.1914 49.5117-21.1914C55.6152-21.1914 61.1816-19.7266 65.918-16.9434C67.4316-18.8965 69.2383-20.6055 71.4355-22.1191C65.1367-26.2695 57.5684-28.418 49.5117-28.418C29.0527-28.418 12.4512-13.5742 12.4512 2.68555C12.4512 8.10547 15.7715 10.791 22.3633 10.791ZM75.0977 10.791L136.426 10.791C144.58 10.791 148.438 8.34961 148.438 2.97852C148.438-9.81445 132.275-28.3203 105.762-28.3203C79.248-28.3203 63.0859-9.81445 63.0859 2.97852C63.0859 8.34961 66.9922 10.791 75.0977 10.791ZM72.7539 3.41797C71.4844 3.41797 70.9473 3.07617 70.9473 2.05078C70.9473-5.95703 83.3496-20.9473 105.762-20.9473C128.174-20.9473 140.576-5.95703 140.576 2.05078C140.576 3.07617 140.039 3.41797 138.77 3.41797Z"/>
  </g>
  <g id="Light-M" transform="matrix(1 0 0 1 1073.23 1126)">
   <path d="M105.322-35.0098C116.699-35.0098 125.83-45.0195 125.83-57.4707C125.83-69.6777 116.65-79.3945 105.322-79.3945C94.043-79.3945 84.7656-69.5312 84.8145-57.4219C84.8633-44.9707 93.9453-35.0098 105.322-35.0098ZM105.322-40.7227C97.3633-40.7227 90.8691-48.0469 90.8691-57.4219C90.7715-66.5039 97.3633-73.6816 105.322-73.6816C113.281-73.6816 119.775-66.5527 119.775-57.4707C119.775-48.0957 113.33-40.7227 105.322-40.7227ZM49.0723-33.9355C59.0332-33.9355 66.9434-42.627 66.9434-53.6133C66.9434-64.209 58.9844-72.8027 49.0723-72.8027C39.3066-72.8027 31.2012-64.0625 31.25-53.5645C31.3477-42.627 39.209-33.9355 49.0723-33.9355ZM49.0723-39.5996C42.3828-39.5996 36.9141-45.7031 36.9141-53.5645C36.9141-61.0352 42.3828-67.1387 49.0723-67.1387C55.8594-67.1387 61.3281-61.1328 61.3281-53.6133C61.3281-45.7031 55.8594-39.5996 49.0723-39.5996ZM21.3379 10.2051L61.5723 10.2051C59.7168 9.17969 58.2031 6.93359 58.252 4.58984L20.5566 4.58984C18.7988 4.58984 18.1152 3.95508 18.1152 2.34375C18.1152-10.6934 32.3242-22.4121 49.0234-22.4121C56.1523-22.4121 62.5977-20.5078 67.7734-16.8945C68.9941-18.3594 70.4102-19.6777 72.0703-20.8984C65.5762-25.5859 57.6172-28.0273 49.0234-28.0273C28.0762-28.0273 12.4512-12.8418 12.4512 2.63672C12.4512 7.71484 15.3809 10.2051 21.3379 10.2051ZM73.7305 10.2051L136.768 10.2051C143.945 10.2051 147.363 7.91016 147.363 2.97852C147.363-9.76562 131.299-27.8809 105.273-27.8809C79.1992-27.8809 63.1836-9.76562 63.1836 2.97852C63.1836 7.91016 66.6016 10.2051 73.7305 10.2051ZM72.2168 4.44336C69.9707 4.44336 69.2383 3.90625 69.2383 2.34375C69.2383-6.88477 82.3242-22.168 105.273-22.168C128.223-22.168 141.309-6.88477 141.309 2.34375C141.309 3.90625 140.527 4.44336 138.33 4.44336Z"/>
  </g>
  <g id="Thin-M" transform="matrix(1 0 0 1 777.247 1126)">
   <path d="M104.736-34.9121C115.82-34.9121 124.463-44.4824 124.463-56.7871C124.463-68.5547 115.576-78.1738 104.736-78.1738C93.7988-78.1738 84.8633-68.457 84.9609-56.7383C85.0586-44.4824 93.6035-34.9121 104.736-34.9121ZM104.736-38.4766C95.7031-38.4766 88.5742-46.3867 88.5742-56.7383C88.4766-66.5527 95.8008-74.6094 104.736-74.6094C113.574-74.6094 120.85-66.6504 120.85-56.7871C120.85-46.3867 113.77-38.4766 104.736-38.4766ZM48.4863-33.8379C58.2031-33.8379 65.7227-42.1387 65.7227-52.9785C65.7227-63.2324 57.959-71.6309 48.4863-71.6309C39.0137-71.6309 31.2012-63.1348 31.2988-52.9297C31.3965-42.1387 38.8184-33.8379 48.4863-33.8379ZM48.4863-37.3535C40.8203-37.3535 34.8145-44.0918 34.8145-52.9297C34.8145-61.2305 40.918-68.1641 48.4863-68.1641C56.0547-68.1641 62.2559-61.2793 62.2559-52.9785C62.2559-44.0918 56.2012-37.3535 48.4863-37.3535ZM19.9707 9.375L62.6953 9.375C61.5234 8.74023 60.3516 7.42188 60.0098 5.9082L19.7266 5.9082C16.9922 5.9082 15.9668 4.98047 15.9668 2.49023C15.9668-11.8164 30.7617-24.0723 48.3887-24.0723C56.8848-24.0723 64.502-21.582 70.2637-16.8457C71.0449-17.6758 71.9238-18.457 72.9004-19.2383C66.2109-24.6582 57.7148-27.5391 48.3887-27.5391C26.7578-27.5391 12.4512-11.9141 12.4512 2.58789C12.4512 7.17773 14.9414 9.375 19.9707 9.375ZM71.9727 9.375L137.256 9.375C143.115 9.375 145.898 7.37305 145.898 2.97852C145.898-9.66797 130.078-27.3438 104.59-27.3438C79.1504-27.3438 63.2812-9.66797 63.2812 2.97852C63.2812 7.37305 66.0645 9.375 71.9727 9.375ZM71.4844 5.85938C68.0176 5.85938 66.9434 5.0293 66.9434 2.73438C66.9434-8.1543 80.9082-23.8281 104.59-23.8281C128.32-23.8281 142.285-8.1543 142.285 2.73438C142.285 5.0293 141.211 5.85938 137.744 5.85938Z"/>
  </g>
  <g id="Ultralight-M" transform="matrix(1 0 0 1 480.903 1126)">
   <path d="M104.395-34.8633C115.332-34.8633 123.73-44.1895 123.73-56.4453C123.73-68.0176 115.039-77.5391 104.395-77.5391C93.7012-77.5391 84.9121-67.9199 85.0586-56.4453C85.1562-44.2383 93.457-34.8633 104.395-34.8633ZM104.395-37.3047C94.8242-37.3047 87.4512-45.5566 87.4512-56.4453C87.3047-66.6016 95.0195-75.1465 104.395-75.1465C113.721-75.1465 121.338-66.6504 121.338-56.4453C121.338-45.5566 113.965-37.3047 104.395-37.3047ZM48.1934-33.8379C57.8125-33.8379 65.1367-41.8945 65.1367-52.6367C65.1367-62.6953 57.4707-71.0449 48.1934-71.0449C38.8672-71.0449 31.2012-62.6465 31.3477-52.6367C31.4453-41.8945 38.623-33.8379 48.1934-33.8379ZM48.1934-36.2305C39.9902-36.2305 33.7402-43.2129 33.7402-52.6367C33.7402-61.3281 40.1855-68.6523 48.1934-68.6523C56.1523-68.6523 62.7441-61.377 62.7441-52.6367C62.7441-43.2129 56.3965-36.2305 48.1934-36.2305ZM19.2383 8.93555L63.2812 8.93555C62.4512 8.54492 61.4746 7.71484 60.8887 6.5918L19.3359 6.5918C16.0645 6.5918 14.8438 5.46875 14.8438 2.58789C14.8438-12.3535 29.9805-24.9023 48.0957-24.9023C57.2266-24.9023 65.4297-22.168 71.5332-16.7969C72.1191-17.334 72.7051-17.8223 73.291-18.3594C66.5039-24.1699 57.7637-27.2461 48.0957-27.2461C26.123-27.2461 12.4512-11.4258 12.4512 2.58789C12.4512 6.93359 14.6973 8.93555 19.2383 8.93555ZM71.0449 8.93555L137.451 8.93555C142.725 8.93555 145.166 7.08008 145.166 2.92969C145.166-9.61914 129.443-27.0508 104.248-27.0508C79.1016-27.0508 63.3789-9.61914 63.3789 2.92969C63.3789 7.08008 65.8203 8.93555 71.0449 8.93555ZM71.0938 6.54297C66.9922 6.54297 65.7715 5.61523 65.7715 2.97852C65.7715-8.74023 80.1758-24.6582 104.248-24.6582C128.369-24.6582 142.773-8.74023 142.773 2.97852C142.773 5.61523 141.553 6.54297 137.451 6.54297Z"/>
  </g>
  <g id="Black-S" transform="matrix(1 0 0 1 2868.31 696)">
   <path d="M85.7422-33.7402C95.7031-33.7402 103.516-42.1875 103.516-52.8809C103.516-63.1836 95.5078-71.7773 85.7422-71.7773C75.9766-71.7773 67.9199-63.1836 67.9688-52.8809C68.0176-42.1875 75.7812-33.7402 85.7422-33.7402ZM40.1367-32.9102C48.877-32.9102 55.8105-40.3809 55.8105-49.8047C55.8105-58.8867 48.6816-66.4551 40.1367-66.4551C31.543-66.4551 24.4141-58.8379 24.4629-49.8047C24.5117-40.332 31.3965-32.9102 40.1367-32.9102ZM85.7422-44.4824C81.8848-44.4824 78.7109-47.998 78.7109-52.9297C78.6621-57.373 82.0312-61.0352 85.7422-61.0352C89.502-61.0352 92.7734-57.373 92.7734-52.8809C92.7734-48.0469 89.6484-44.4824 85.7422-44.4824ZM40.1367-43.457C37.3535-43.457 35.0098-46.0938 35.0098-49.8047C34.9609-53.125 37.4512-55.9082 40.1367-55.9082C42.7734-55.9082 45.2637-53.125 45.2637-49.8047C45.2637-46.0938 42.9688-43.457 40.1367-43.457ZM62.7441 2.63672L108.74 2.63672C116.455 2.63672 120.41-0.244141 120.41-6.15234C120.41-18.8477 105.127-30.6641 85.7422-30.6641C66.3574-30.6641 51.0742-18.8477 51.0742-6.15234C51.0742-0.244141 55.0293 2.63672 62.7441 2.63672ZM20.1172 2.68555L48.4375 2.68555C45.166 0.585938 43.75-4.3457 44.0918-7.91016L22.4121-7.91016C21.9238-7.91016 21.8262-8.25195 21.8262-8.49609C21.8262-13.9648 29.6875-20.1172 40.1367-20.1172C41.9922-20.1172 46.1426-19.4336 47.6562-19.043C49.2188-22.4121 51.709-25.1953 55.5176-27.3926C51.123-29.248 44.4824-30.6152 40.1367-30.6152C23.291-30.6152 9.76562-19.3359 9.76562-6.68945C9.76562-0.732422 13.1836 2.68555 20.1172 2.68555ZM64.3555-8.10547C63.8672-8.10547 63.7695-8.44727 63.7695-8.74023C63.7695-12.5488 72.0703-19.9219 85.7422-19.9219C99.4141-19.9219 107.715-12.5488 107.715-8.74023C107.715-8.44727 107.617-8.10547 107.129-8.10547Z"/>
  </g>
  <g id="Heavy-S" transform="matrix(1 0 0 1 2572.02 696)">
   <path d="M85.1074-34.082C94.9219-34.082 102.686-42.4805 102.686-52.9785C102.686-63.1836 94.7754-71.582 85.1074-71.582C75.4883-71.582 67.5293-63.1836 67.5781-52.9785C67.627-42.4805 75.3418-34.082 85.1074-34.082ZM39.8926-33.252C48.4375-33.252 55.2734-40.625 55.2734-49.9023C55.2734-58.8867 48.3398-66.3086 39.8926-66.3086C31.4453-66.3086 24.4141-58.7891 24.4629-49.9023C24.5117-40.5762 31.3477-33.252 39.8926-33.252ZM85.1074-43.8477C80.957-43.8477 77.4414-47.7051 77.4414-53.0273C77.3926-57.9102 81.0547-61.8164 85.1074-61.8164C89.2578-61.8164 92.8223-57.9102 92.8223-52.9785C92.8223-47.8027 89.3555-43.8477 85.1074-43.8477ZM39.8926-42.8223C36.7188-42.8223 34.0332-45.8496 34.0332-49.9023C34.0332-53.6133 36.7676-56.6895 39.8926-56.6895C42.9688-56.6895 45.7031-53.6621 45.7031-49.9023C45.7031-45.8496 43.0664-42.8223 39.8926-42.8223ZM61.9629 2.29492L108.252 2.29492C115.771 2.29492 119.58-0.390625 119.58-5.95703C119.58-18.0176 104.883-30.5176 85.1074-30.5176C65.3809-30.5176 50.6836-18.0176 50.6836-5.95703C50.6836-0.390625 54.4922 2.29492 61.9629 2.29492ZM19.6289 2.29492L48.1445 2.29492C45.166 0.439453 43.7012-3.95508 44.043-7.27539L21.0938-7.27539C20.6543-7.27539 20.5078-7.61719 20.5078-7.91016C20.5078-14.209 29.0039-20.9473 39.8926-20.9473C42.334-20.9473 46.3867-20.2148 48.3887-19.4824C49.9023-22.4609 52.1973-24.9512 55.5664-26.9531C51.0254-29.1016 44.6289-30.4688 39.8926-30.4688C23.291-30.4688 9.76562-19.1406 9.76562-6.39648C9.76562-0.830078 13.0371 2.29492 19.6289 2.29492ZM62.6953-7.4707C62.207-7.4707 62.0605-7.76367 62.0605-8.1543C62.0605-12.4023 70.6055-20.752 85.1074-20.752C99.6582-20.752 108.203-12.4023 108.203-8.1543C108.203-7.76367 108.057-7.4707 107.568-7.4707Z"/>
  </g>
  <g id="Bold-S" transform="matrix(1 0 0 1 2275.79 696)">
   <path d="M84.4238-34.4238C93.9941-34.4238 101.709-42.7734 101.709-53.125C101.709-63.2324 93.9941-71.3867 84.4238-71.3867C74.9512-71.3867 67.1387-63.1348 67.1387-53.0762C67.1875-42.7734 74.8535-34.4238 84.4238-34.4238ZM39.5996-33.5938C47.9492-33.5938 54.7363-40.918 54.7363-50.0488C54.7363-58.8867 47.9004-66.1133 39.5996-66.1133C31.2988-66.1133 24.4629-58.7891 24.4629-50C24.5117-40.8691 31.25-33.5938 39.5996-33.5938ZM84.4238-43.1152C79.8828-43.1152 76.0254-47.4121 76.0254-53.0762C76.0254-58.4961 79.9316-62.7441 84.4238-62.7441C89.0137-62.7441 92.8223-58.5449 92.8223-53.125C92.8223-47.4609 89.0137-43.1152 84.4238-43.1152ZM39.5996-42.0898C36.0352-42.0898 32.959-45.5566 32.959-50C32.959-54.1992 36.0352-57.6172 39.5996-57.6172C43.1641-57.6172 46.2402-54.248 46.2402-50.0488C46.2402-45.5566 43.1641-42.0898 39.5996-42.0898ZM19.0918 1.9043L47.8027 1.9043C45.1172 0.244141 43.6523-3.51562 44.043-6.5918L19.6777-6.5918C19.1895-6.5918 19.043-6.88477 19.043-7.22656C19.043-14.4531 28.2715-21.875 39.5996-21.875C42.6758-21.875 46.6797-21.0449 49.1699-19.9707C50.6348-22.5586 52.6855-24.707 55.6152-26.5137C50.9766-28.9062 44.7754-30.3223 39.5996-30.3223C23.2422-30.3223 9.76562-18.9453 9.76562-6.10352C9.76562-0.927734 12.8418 1.9043 19.0918 1.9043ZM61.1328 1.9043L107.764 1.9043C115.039 1.9043 118.604-0.585938 118.604-5.71289C118.604-17.0898 104.639-30.3223 84.4238-30.3223C64.2578-30.3223 50.2441-17.0898 50.2441-5.71289C50.2441-0.585938 53.8574 1.9043 61.1328 1.9043ZM60.8398-6.78711C60.3027-6.78711 60.1074-7.03125 60.1074-7.4707C60.1074-12.207 68.9453-21.6797 84.4238-21.6797C99.9023-21.6797 108.74-12.207 108.74-7.4707C108.74-7.03125 108.545-6.78711 108.057-6.78711Z"/>
  </g>
  <g id="Semibold-S" transform="matrix(1 0 0 1 1979.4 696)">
   <path d="M83.9844-34.7168C93.4082-34.7168 101.074-43.0176 101.074-53.1738C101.074-63.2324 93.4082-71.2402 83.9844-71.2402C74.5605-71.2402 66.8457-63.1348 66.8457-53.125C66.8457-42.9688 74.5117-34.7168 83.9844-34.7168ZM39.4043-33.8379C47.6074-33.8379 54.2969-41.1621 54.2969-50.0977C54.2969-58.8867 47.6562-66.0156 39.4043-66.0156C31.2012-66.0156 24.4629-58.7402 24.4629-50.0488C24.4629-41.1133 31.2012-33.8379 39.4043-33.8379ZM83.9844-42.5781C79.1992-42.5781 75.0488-47.2168 75.0488-53.125C75.0488-58.9355 79.1504-63.3301 83.9844-63.3301C88.8184-63.3301 92.8711-58.9844 92.8711-53.1738C92.8711-47.2656 88.7695-42.5781 83.9844-42.5781ZM39.4043-41.6016C35.5469-41.6016 32.2266-45.3613 32.2266-50.0488C32.2266-54.5898 35.5469-58.2031 39.4043-58.2031C43.3105-58.2031 46.582-54.6387 46.582-50.0977C46.582-45.3613 43.2617-41.6016 39.4043-41.6016ZM18.7012 1.61133L47.5586 1.61133C45.1172 0.146484 43.6035-3.22266 43.9941-6.15234L18.6523-6.15234C18.2129-6.15234 18.0176-6.39648 18.0176-6.73828C18.0176-14.6484 27.7832-22.5098 39.4043-22.5098C42.9199-22.5098 46.875-21.6309 49.7559-20.3125C51.1719-22.6074 53.0762-24.5117 55.6152-26.1719C50.9277-28.7598 44.873-30.2246 39.4043-30.2246C23.2422-30.2246 9.76562-18.8477 9.76562-5.9082C9.76562-0.976562 12.7441 1.61133 18.7012 1.61133ZM60.5469 1.61133L107.373 1.61133C114.502 1.61133 117.969-0.683594 117.969-5.56641C117.969-16.4551 104.443-30.2246 83.9355-30.2246C63.4766-30.2246 49.9512-16.4551 49.9512-5.56641C49.9512-0.683594 53.418 1.61133 60.5469 1.61133ZM59.5215-6.29883C59.0332-6.29883 58.7891-6.54297 58.7891-6.98242C58.7891-12.0605 67.8223-22.3145 83.9355-22.3145C100.098-22.3145 109.131-12.0605 109.131-6.98242C109.131-6.54297 108.887-6.29883 108.398-6.29883Z"/>
  </g>
  <g id="Medium-S" transform="matrix(1 0 0 1 1682.93 696)">
   <path d="M83.5938-34.9121C92.9199-34.9121 100.586-43.1641 100.586-53.2715C100.586-63.2324 93.0176-71.1426 83.5938-71.1426C74.2676-71.1426 66.6016-63.1348 66.6016-53.1738C66.6504-43.1641 74.2676-34.9121 83.5938-34.9121ZM39.2578-34.0332C47.3633-34.0332 54.0039-41.3086 54.0039-50.1953C54.0039-58.8867 47.4121-65.918 39.2578-65.918C31.1523-65.918 24.4629-58.7402 24.4629-50.0977C24.4629-41.2598 31.1523-34.0332 39.2578-34.0332ZM83.5938-42.2363C78.6621-42.2363 74.3164-47.0215 74.3164-53.1738C74.3164-59.2285 78.5645-63.8184 83.5938-63.8184C88.6719-63.8184 92.8711-59.2773 92.8711-53.2715C92.8711-47.1191 88.623-42.2363 83.5938-42.2363ZM39.2578-41.2598C35.2051-41.2598 31.6895-45.2148 31.6895-50.0977C31.6895-54.8828 35.1562-58.6914 39.2578-58.6914C43.457-58.6914 46.8262-54.9316 46.8262-50.1953C46.8262-45.2148 43.3105-41.2598 39.2578-41.2598ZM18.4082 1.41602L47.3633 1.41602C45.1172 0.0488281 43.6035-2.97852 43.9941-5.76172L17.8711-5.76172C17.4805-5.76172 17.2363-6.00586 17.2363-6.39648C17.2363-14.7949 27.3926-22.998 39.2578-22.998C43.1152-22.998 47.0215-22.1191 50.1953-20.6055C51.5625-22.6074 53.3203-24.4141 55.6152-25.9277C50.8789-28.6621 44.9707-30.1758 39.2578-30.1758C23.2422-30.1758 9.76562-18.7012 9.76562-5.71289C9.76562-1.02539 12.6465 1.41602 18.4082 1.41602ZM60.1074 1.41602L107.08 1.41602C114.111 1.41602 117.48-0.78125 117.48-5.41992C117.48-15.9668 104.297-30.127 83.5938-30.127C62.8906-30.127 49.707-15.9668 49.707-5.41992C49.707-0.78125 53.0762 1.41602 60.1074 1.41602ZM58.5449-5.9082C58.0078-5.9082 57.7637-6.15234 57.7637-6.64062C57.7637-11.9629 66.9922-22.8027 83.5938-22.8027C100.244-22.8027 109.424-11.9629 109.424-6.64062C109.424-6.15234 109.18-5.9082 108.643-5.9082Z"/>
  </g>
  <g id="Regular-S" transform="matrix(1 0 0 1 1386.54 696)">
   <path d="M83.1543-35.1562C92.334-35.1562 99.9512-43.4082 99.9512-53.3203C99.9512-63.2324 92.4316-70.9961 83.1543-70.9961C73.877-70.9961 66.3086-63.0859 66.3086-53.2227C66.3086-43.3594 73.9258-35.1562 83.1543-35.1562ZM39.0625-34.2773C47.0215-34.2773 53.6133-41.5039 53.6133-50.2441C53.6133-58.8867 47.168-65.7715 39.0625-65.7715C31.0547-65.7715 24.4629-58.7402 24.4629-50.1953C24.4629-41.4551 31.1035-34.2773 39.0625-34.2773ZM83.1543-41.748C77.9297-41.748 73.3887-46.8262 73.3887-53.2227C73.3398-59.6191 77.7832-64.4043 83.1543-64.4043C88.5254-64.4043 92.8711-59.7168 92.8711-53.3203C92.8711-46.9238 88.3789-41.748 83.1543-41.748ZM39.0625-40.7715C34.7168-40.7715 30.957-45.0195 30.957-50.1953C30.957-55.2246 34.6191-59.2773 39.0625-59.2773C43.5547-59.2773 47.168-55.3223 47.168-50.2441C47.168-45.0195 43.4082-40.7715 39.0625-40.7715ZM18.0664 1.12305L47.168 1.12305C45.0684-0.0488281 43.5547-2.68555 43.9453-5.32227L16.8945-5.32227C16.5039-5.32227 16.2598-5.51758 16.2598-5.95703C16.2598-14.9902 26.8555-23.6328 39.0137-23.6328C43.3594-23.6328 47.2656-22.7051 50.7324-20.9473C52.0996-22.6562 53.7109-24.2188 55.6641-25.5859C50.7812-28.5645 45.0684-30.0781 39.0137-30.0781C23.2422-30.0781 9.76562-18.6035 9.76562-5.51758C9.76562-1.07422 12.5488 1.12305 18.0664 1.12305ZM59.5215 1.12305L106.738 1.12305C113.574 1.12305 116.846-0.878906 116.846-5.27344C116.846-15.332 104.102-30.0293 83.1055-30.0293C62.1582-30.0293 49.4141-15.332 49.4141-5.27344C49.4141-0.878906 52.6855 1.12305 59.5215 1.12305ZM57.2754-5.46875C56.7383-5.46875 56.4453-5.61523 56.4453-6.15234C56.4453-11.8652 65.8691-23.4375 83.1055-23.4375C100.391-23.4375 109.766-11.8652 109.766-6.15234C109.766-5.61523 109.521-5.46875 108.984-5.46875Z"/>
  </g>
  <g id="Light-S" transform="matrix(1 0 0 1 1090.32 696)">
   <path d="M82.7148-35.1074C91.748-35.1074 99.0234-43.0664 99.0234-52.8809C99.0234-62.5 91.748-70.166 82.7148-70.166C73.7305-70.166 66.4062-62.4023 66.4062-52.7832C66.4551-43.0176 73.7305-35.1074 82.7148-35.1074ZM82.7148-40.1855C76.8066-40.1855 71.875-45.752 71.875-52.7832C71.8262-59.668 76.7578-65.0879 82.7148-65.0879C88.7207-65.0879 93.6035-59.7656 93.6035-52.8809C93.6035-45.8008 88.6719-40.1855 82.7148-40.1855ZM38.623-34.2285C46.4844-34.2285 52.832-41.1621 52.832-49.8047C52.832-58.2031 46.4844-64.9902 38.623-64.9902C30.8594-64.9902 24.4629-58.1055 24.5117-49.7559C24.5117-41.1621 30.8594-34.2285 38.623-34.2285ZM38.623-39.2578C33.6914-39.2578 29.541-43.9453 29.541-49.7559C29.541-55.3711 33.6426-59.9609 38.623-59.9609C43.7012-59.9609 47.8027-55.4688 47.8027-49.8047C47.8027-43.9453 43.6523-39.2578 38.623-39.2578ZM17.1387 0.585938L47.9004 0.585938C46.2891-0.341797 45.0195-2.34375 45.1172-4.39453L16.3574-4.39453C15.2832-4.39453 14.7949-4.83398 14.7949-5.85938C14.7949-15.7227 25.8301-24.707 38.623-24.707C43.7988-24.707 48.4863-23.3887 52.3926-20.8984C53.4668-22.2168 54.7363-23.3887 56.2012-24.4629C51.2207-27.9297 45.1172-29.7363 38.623-29.7363C22.3633-29.7363 9.76562-17.9688 9.76562-5.56641C9.76562-1.41602 12.207 0.585938 17.1387 0.585938ZM58.3008 0.585938L107.031 0.585938C113.037 0.585938 115.869-1.26953 115.869-5.27344C115.869-15.2832 103.271-29.6387 82.666-29.6387C62.1094-29.6387 49.5117-15.2832 49.5117-5.27344C49.5117-1.26953 52.3438 0.585938 58.3008 0.585938ZM56.7871-4.54102C55.4199-4.54102 54.9316-4.88281 54.9316-5.9082C54.9316-12.6953 64.8926-24.5117 82.666-24.5117C100.439-24.5117 110.449-12.6953 110.449-5.9082C110.449-4.88281 109.961-4.54102 108.545-4.54102Z"/>
  </g>
  <g id="Thin-S" transform="matrix(1 0 0 1 794.24 696)">
   <path d="M82.1777-35.0098C90.918-35.0098 97.8027-42.5781 97.8027-52.2461C97.8027-61.5723 90.7715-69.0918 82.1777-69.0918C73.584-69.0918 66.5039-61.4746 66.5527-52.2461C66.6504-42.5781 73.4375-35.0098 82.1777-35.0098ZM82.1777-38.1836C75.293-38.1836 69.873-44.2871 69.873-52.2461C69.7754-59.7656 75.3906-65.918 82.1777-65.918C88.9648-65.918 94.4824-59.8145 94.4824-52.2461C94.4824-44.2871 89.0625-38.1836 82.1777-38.1836ZM38.1348-34.1797C45.752-34.1797 51.7578-40.7715 51.7578-49.2676C51.7578-57.3242 45.6055-63.9648 38.1348-63.9648C30.6152-63.9648 24.4629-57.2754 24.5117-49.2188C24.6094-40.7227 30.5176-34.1797 38.1348-34.1797ZM38.1348-37.3047C32.2754-37.3047 27.6855-42.4805 27.6855-49.2188C27.6855-55.5664 32.373-60.8398 38.1348-60.8398C43.8965-60.8398 48.584-55.6152 48.584-49.2676C48.584-42.4805 43.9941-37.3047 38.1348-37.3047ZM15.918-0.146484L48.9258-0.146484C47.8516-0.683594 46.875-1.9043 46.6797-3.22266L15.625-3.22266C13.6719-3.22266 12.9395-3.95508 12.9395-5.71289C12.9395-16.6504 24.4141-26.1719 38.0371-26.1719C44.4336-26.1719 50.1465-24.3652 54.5898-20.8496C55.2734-21.6309 56.0547-22.3145 56.9336-22.998C51.7578-27.1484 45.2148-29.2969 38.0371-29.2969C21.2402-29.2969 9.76562-17.1387 9.76562-5.56641C9.76562-1.9043 11.8164-0.146484 15.918-0.146484ZM56.7383-0.146484L107.471-0.146484C112.305-0.146484 114.6-1.75781 114.6-5.32227C114.6-15.2344 102.148-29.1504 82.1289-29.1504C62.0605-29.1504 49.6094-15.2344 49.6094-5.32227C49.6094-1.75781 51.9043-0.146484 56.7383-0.146484ZM56.1523-3.32031C53.7109-3.32031 52.8809-3.90625 52.8809-5.56641C52.8809-13.7695 63.6719-25.9766 82.1289-25.9766C100.537-25.9766 111.328-13.7695 111.328-5.56641C111.328-3.90625 110.498-3.32031 108.057-3.32031Z"/>
  </g>
  <g id="Ultralight-S" transform="matrix(1 0 0 1 497.846 696)">
   <path d="M81.8848-34.9609C90.5273-34.9609 97.168-42.334 97.168-51.9043C97.168-61.0352 90.2832-68.5547 81.8848-68.5547C73.4375-68.5547 66.5527-60.9863 66.6504-51.9043C66.748-42.334 73.291-34.9609 81.8848-34.9609ZM81.8848-37.1582C74.5605-37.1582 68.8477-43.5547 68.8477-51.9043C68.75-59.8145 74.6582-66.3574 81.8848-66.3574C89.0625-66.3574 94.9707-59.8633 94.9707-51.9043C94.9707-43.5547 89.2578-37.1582 81.8848-37.1582ZM37.8418-34.1309C45.4102-34.1309 51.2207-40.5273 51.2207-48.9258C51.2207-56.8848 45.166-63.4277 37.8418-63.4277C30.5176-63.4277 24.4629-56.8359 24.5605-48.9258C24.6582-40.5273 30.3223-34.1309 37.8418-34.1309ZM37.8418-36.3281C31.543-36.3281 26.709-41.748 26.709-48.9258C26.709-55.6641 31.6895-61.2793 37.8418-61.2793C43.9941-61.2793 49.0234-55.7129 49.0234-48.9258C49.0234-41.748 44.1406-36.3281 37.8418-36.3281ZM15.2832-0.488281L49.4629-0.488281C48.6816-0.878906 47.8516-1.66016 47.4609-2.63672L15.2832-2.63672C12.8418-2.63672 11.9629-3.4668 11.9629-5.61523C11.9629-17.1875 23.6816-26.9043 37.7441-26.9043C44.7754-26.9043 51.0254-24.8535 55.7129-20.8008C56.25-21.2891 56.7871-21.7773 57.3242-22.2656C52.0508-26.709 45.2637-29.0527 37.7441-29.0527C20.6543-29.0527 9.76562-16.6992 9.76562-5.61523C9.76562-2.14844 11.5723-0.488281 15.2832-0.488281ZM55.957-0.488281L107.666-0.488281C111.963-0.488281 113.965-2.00195 113.965-5.32227C113.965-15.1855 101.611-28.9062 81.7871-28.9062C62.0117-28.9062 49.6582-15.1855 49.6582-5.32227C49.6582-2.00195 51.6602-0.488281 55.957-0.488281ZM55.8594-2.68555C52.7832-2.68555 51.8555-3.36914 51.8555-5.37109C51.8555-14.3066 63.0371-26.709 81.7871-26.709C100.586-26.709 111.768-14.3066 111.768-5.37109C111.768-3.36914 110.84-2.68555 107.764-2.68555Z"/>
  </g>
 </g>
</svg>
